<svg width="178" height="50" viewBox="0 0 178 50" fill="none" xmlns="http://www.w3.org/2000/svg">
<g clip-path="url(#clip0_4745_36)">
<path d="M174.138 0.43103H3.44826C1.78188 0.43103 0.431015 1.7819 0.431015 3.44827V46.5517C0.431015 48.2181 1.78188 49.569 3.44826 49.569H174.138C175.804 49.569 177.155 48.2181 177.155 46.5517V3.44827C177.155 1.7819 175.804 0.43103 174.138 0.43103Z" fill="white"/>
<path d="M174.138 0.43103H3.44826C1.78188 0.43103 0.431015 1.7819 0.431015 3.44827V46.5517C0.431015 48.2181 1.78188 49.569 3.44826 49.569H174.138C175.804 49.569 177.155 48.2181 177.155 46.5517V3.44827C177.155 1.7819 175.804 0.43103 174.138 0.43103Z" stroke="#D9D9D9" stroke-width="0.862069"/>
<path d="M64.2209 35.2006C62.9219 35.2006 61.8322 34.7609 60.9526 33.8809C60.0729 33.0012 59.6329 31.9036 59.6329 30.5879C59.6329 29.2725 60.0729 28.1749 60.9526 27.2949C61.8322 26.4156 62.9219 25.9752 64.2209 25.9752C65.5529 25.9752 66.634 26.4565 67.4646 27.4182L66.6752 28.1829C66.0749 27.4349 65.2569 27.0606 64.2209 27.0606C63.259 27.0606 62.4469 27.3856 61.7852 28.0349C61.1233 28.6845 60.7922 29.5356 60.7922 30.5879C60.7922 31.6406 61.1233 32.4915 61.7852 33.1409C62.4469 33.7909 63.259 34.1152 64.2209 34.1152C65.2815 34.1152 66.1863 33.6879 66.9342 32.8325L67.7236 33.6222C67.3206 34.1072 66.8149 34.4915 66.2065 34.7752C65.5979 35.0586 64.9363 35.2006 64.2209 35.2006Z" fill="#1A1A1A"/>
<path d="M70.0261 26.1726V28.9599L69.9768 29.7986H70.0261C70.1904 29.511 70.4494 29.2662 70.8031 29.0649C71.1564 28.8633 71.5348 28.763 71.9377 28.763C72.6857 28.763 73.2575 28.9929 73.6521 29.4533C74.0468 29.9139 74.2441 30.5306 74.2441 31.3036V35.0033H73.1094V31.476C73.1094 30.358 72.6118 29.7986 71.6171 29.7986C71.1484 29.7986 70.7661 29.9856 70.4701 30.3599C70.1741 30.7342 70.0261 31.1676 70.0261 31.661V35.0033H68.8914V26.1726H70.0261Z" fill="#1A1A1A"/>
<path d="M76.6798 35.0033H75.5451V28.96H76.6305V29.9467H76.6798C76.7948 29.618 77.0312 29.3463 77.3888 29.1327C77.7465 28.919 78.0938 28.812 78.4312 28.812C78.7682 28.812 79.0519 28.8613 79.2822 28.96L78.8505 30.0207C78.7025 29.9633 78.5008 29.9343 78.2462 29.9343C77.8348 29.9343 77.4712 30.0967 77.1545 30.4217C76.8382 30.7463 76.6798 31.172 76.6798 31.698V35.0033Z" fill="#1A1A1A"/>
<path d="M81.1715 33.5665C81.5619 33.9651 82.0245 34.1647 82.5592 34.1647C83.0935 34.1647 83.5558 33.9651 83.9465 33.5665C84.3372 33.1678 84.5325 32.6397 84.5325 31.9815C84.5325 31.3238 84.3372 30.7954 83.9465 30.3968C83.5558 29.9981 83.0935 29.7984 82.5592 29.7984C82.0245 29.7984 81.5619 29.9981 81.1715 30.3968C80.7812 30.7954 80.5858 31.3238 80.5858 31.9815C80.5858 32.6397 80.7812 33.1678 81.1715 33.5665ZM80.3269 29.6815C80.9105 29.0691 81.6545 28.7628 82.5592 28.7628C83.4635 28.7628 84.2075 29.0691 84.7915 29.6815C85.3751 30.2941 85.6672 31.0608 85.6672 31.9815C85.6672 32.9028 85.3751 33.6695 84.7915 34.2818C84.2075 34.8945 83.4635 35.2004 82.5592 35.2004C81.6545 35.2004 80.9105 34.8945 80.3269 34.2818C79.7428 33.6695 79.4512 32.9028 79.4512 31.9815C79.4512 31.0608 79.7428 30.2941 80.3269 29.6815Z" fill="#1A1A1A"/>
<path d="M86.8301 35.0033V28.96H87.9155V29.7986H87.9646C88.137 29.5107 88.4026 29.2663 88.7603 29.065C89.1181 28.8633 89.4732 28.7627 89.8276 28.7627C90.7646 28.7627 91.4017 29.1493 91.7388 29.922C92.2319 29.1493 92.9353 28.7627 93.8474 28.7627C94.5629 28.7627 95.1017 28.991 95.4629 29.447C95.825 29.9033 96.006 30.5223 96.006 31.3033V35.0033H94.8715V31.476C94.8715 30.8677 94.7603 30.436 94.5379 30.181C94.3163 29.9263 93.9793 29.7986 93.5267 29.7986C93.0827 29.7986 92.7146 29.988 92.4232 30.366C92.131 30.7443 91.9853 31.176 91.9853 31.661V35.0033H90.8508V31.476C90.8508 30.8677 90.7396 30.436 90.5172 30.181C90.2957 29.9263 89.9586 29.7986 89.506 29.7986C89.062 29.7986 88.6939 29.988 88.4026 30.366C88.1103 30.7443 87.9646 31.176 87.9646 31.661V35.0033H86.8301Z" fill="#1A1A1A"/>
<path d="M101.865 31.254C101.84 30.9087 101.681 30.58 101.39 30.2673C101.097 29.955 100.664 29.7987 100.089 29.7987C99.669 29.7987 99.3052 29.9303 98.9965 30.1933C98.6888 30.4563 98.4767 30.81 98.3621 31.254H101.865ZM100.236 35.2006C99.3233 35.2006 98.581 34.8967 98.0103 34.288C97.4388 33.6797 97.1534 32.911 97.1534 31.9817C97.1534 31.102 97.4302 30.3453 97.9853 29.7123C98.5405 29.0794 99.25 28.7626 100.113 28.7626C101.009 28.7626 101.727 29.0547 102.265 29.6383C102.803 30.222 103.073 31.0033 103.073 31.9817L103.06 32.1917H98.2879C98.3207 32.8 98.5241 33.281 98.8983 33.6344C99.2724 33.988 99.7103 34.1647 100.212 34.1647C101.026 34.1647 101.577 33.8194 101.865 33.1287L102.876 33.548C102.678 34.0167 102.353 34.4094 101.902 34.726C101.449 35.0423 100.894 35.2006 100.236 35.2006Z" fill="#1A1A1A"/>
<path d="M116.895 26.1726L114.54 35.0033H113.379L111.48 29.1819H111.431L109.532 35.0033H108.372L105.918 26.1726H107.102L108.965 33.1162H109.014L110.926 27.3566H111.986L113.898 33.1162H113.947L115.71 26.1726H116.895Z" fill="#1A1A1A"/>
<path d="M121.663 31.254C121.638 30.9087 121.479 30.58 121.187 30.2673C120.896 29.955 120.462 29.7987 119.886 29.7987C119.467 29.7987 119.103 29.9303 118.795 30.1933C118.487 30.4563 118.275 30.81 118.159 31.254H121.663ZM120.034 35.2006C119.122 35.2006 118.379 34.8967 117.808 34.288C117.237 33.6796 116.951 32.911 116.951 31.9817C116.951 31.102 117.228 30.3453 117.784 29.7123C118.339 29.0794 119.047 28.7626 119.911 28.7626C120.808 28.7626 121.525 29.0547 122.063 29.6383C122.602 30.222 122.872 31.0033 122.872 31.9817L122.859 32.1917H118.086C118.118 32.8 118.322 33.281 118.697 33.6344C119.071 33.988 119.508 34.1646 120.009 34.1646C120.824 34.1646 121.375 33.8194 121.663 33.1287L122.674 33.548C122.477 34.0167 122.152 34.4094 121.699 34.726C121.247 35.0423 120.692 35.2006 120.034 35.2006Z" fill="#1A1A1A"/>
<path d="M127.047 34.1648C127.573 34.1648 128.026 33.9651 128.403 33.5664C128.782 33.1678 128.971 32.6398 128.971 31.9814C128.971 31.3241 128.782 30.7958 128.403 30.3967C128.026 29.9981 127.573 29.7985 127.047 29.7985C126.512 29.7985 126.058 29.9958 125.684 30.3908C125.309 30.7851 125.123 31.3154 125.123 31.9814C125.123 32.6474 125.309 33.1781 125.684 33.5728C126.058 33.9671 126.512 34.1648 127.047 34.1648ZM127.232 35.2004C126.772 35.2004 126.359 35.1021 125.992 34.9047C125.627 34.7074 125.353 34.4608 125.172 34.1648H125.123V35.0035H124.038V26.1724H125.172V28.9601L125.123 29.7985H125.172C125.353 29.5028 125.627 29.2558 125.992 29.0587C126.359 28.8614 126.772 28.7628 127.232 28.7628C128.013 28.7628 128.688 29.0711 129.254 29.6874C129.822 30.3044 130.106 31.0691 130.106 31.9814C130.106 32.8941 129.822 33.6587 129.254 34.2758C128.688 34.8924 128.013 35.2004 127.232 35.2004Z" fill="#1A1A1A"/>
<path d="M136.215 35.2006C135.573 35.2006 134.947 34.9909 134.334 34.5715C133.722 34.1522 133.321 33.5645 133.131 32.8079L134.167 32.3886C134.291 32.8738 134.543 33.2829 134.926 33.6159C135.309 33.9488 135.738 34.1152 136.215 34.1152C136.708 34.1152 137.129 33.9856 137.479 33.7269C137.828 33.4679 138.003 33.1163 138.003 32.6722C138.003 32.1792 137.828 31.7988 137.479 31.5315C137.129 31.2642 136.577 31.0156 135.82 30.7852C135.039 30.5388 134.447 30.2202 134.044 29.8295C133.641 29.4392 133.441 28.9395 133.441 28.3313C133.441 27.6979 133.691 27.1469 134.192 26.6786C134.694 26.2095 135.347 25.9752 136.153 25.9752C136.902 25.9752 137.51 26.1625 137.978 26.5365C138.447 26.9109 138.751 27.3195 138.891 27.7636L137.855 28.1952C137.781 27.9159 137.598 27.6569 137.306 27.4182C137.015 27.1799 136.639 27.0606 136.178 27.0606C135.742 27.0606 135.37 27.1819 135.062 27.4245C134.753 27.6669 134.599 27.9692 134.599 28.3313C134.599 28.6599 134.741 28.9375 135.025 29.1636C135.309 29.3895 135.725 29.5932 136.277 29.7738C136.712 29.9138 137.076 30.0495 137.368 30.1809C137.659 30.3125 137.956 30.4872 138.256 30.7052C138.556 30.9232 138.782 31.1942 138.934 31.5192C139.086 31.8442 139.163 32.2202 139.163 32.6475C139.163 33.0752 139.074 33.4575 138.897 33.7945C138.721 34.1319 138.486 34.3988 138.194 34.5965C137.902 34.7936 137.588 34.9436 137.251 35.0465C136.914 35.1492 136.568 35.2006 136.215 35.2006Z" fill="#1A1A1A"/>
<path d="M142.872 35.102C142.24 35.102 141.756 34.9336 141.423 34.5963C141.09 34.2593 140.923 33.7823 140.923 33.1656V29.996H139.863V28.9599H140.923V27.1099H142.059V28.9599H143.538V29.996H142.059V33.0793C142.059 33.7373 142.329 34.0663 142.872 34.0663C143.078 34.0663 143.25 34.0333 143.39 33.9673L143.785 34.942C143.538 35.0486 143.234 35.102 142.872 35.102Z" fill="#1A1A1A"/>
<path d="M145.978 33.5665C146.369 33.9651 146.832 34.1648 147.366 34.1648C147.901 34.1648 148.363 33.9651 148.753 33.5665C149.144 33.1678 149.34 32.6398 149.34 31.9815C149.34 31.3238 149.144 30.7954 148.753 30.3968C148.363 29.9981 147.901 29.7984 147.366 29.7984C146.832 29.7984 146.369 29.9981 145.978 30.3968C145.588 30.7954 145.393 31.3238 145.393 31.9815C145.393 32.6398 145.588 33.1678 145.978 33.5665ZM145.134 29.6815C145.717 29.0691 146.461 28.7628 147.366 28.7628C148.271 28.7628 149.015 29.0691 149.598 29.6815C150.182 30.2941 150.474 31.0608 150.474 31.9815C150.474 32.9028 150.182 33.6695 149.598 34.2818C149.015 34.8945 148.271 35.2004 147.366 35.2004C146.461 35.2004 145.717 34.8945 145.134 34.2818C144.55 33.6695 144.259 32.9028 144.259 31.9815C144.259 31.0608 144.55 30.2941 145.134 29.6815Z" fill="#1A1A1A"/>
<path d="M152.597 35.0034H151.463V28.96H152.548V29.9467H152.597C152.712 29.618 152.949 29.3463 153.306 29.1327C153.664 28.919 154.011 28.812 154.349 28.812C154.685 28.812 154.969 28.8613 155.2 28.96L154.768 30.0207C154.62 29.9634 154.418 29.9343 154.164 29.9343C153.753 29.9343 153.389 30.0967 153.072 30.4217C152.755 30.7463 152.597 31.172 152.597 31.698V35.0034Z" fill="#1A1A1A"/>
<path d="M159.935 31.254C159.91 30.9087 159.753 30.58 159.46 30.2674C159.169 29.955 158.734 29.7987 158.159 29.7987C157.74 29.7987 157.376 29.9303 157.067 30.1933C156.759 30.4563 156.547 30.81 156.433 31.254H159.935ZM158.307 35.2006C157.395 35.2006 156.653 34.8967 156.081 34.288C155.509 33.6797 155.224 32.911 155.224 31.9817C155.224 31.102 155.501 30.3453 156.056 29.7124C156.611 29.0794 157.321 28.7626 158.184 28.7626C159.08 28.7626 159.797 29.0547 160.336 29.6383C160.874 30.222 161.144 31.0033 161.144 31.9817L161.132 32.1917H156.359C156.391 32.8 156.595 33.281 156.969 33.6344C157.343 33.988 157.781 34.1647 158.283 34.1647C159.097 34.1647 159.647 33.8194 159.935 33.1287L160.947 33.548C160.749 34.0167 160.425 34.4094 159.972 34.726C159.52 35.0424 158.965 35.2006 158.307 35.2006Z" fill="#1A1A1A"/>
<path d="M62.1886 18.7972H64.4099L63.3179 15.7825H63.2806L62.1886 18.7972ZM60.2939 21.4105L62.8139 14.7278H63.7846L66.3046 21.4105H65.3526L64.7086 19.5998H61.8992L61.246 21.4105H60.2939Z" fill="#5F6368"/>
<path d="M67.9222 21.4105L66.0742 16.8372H67.0075L68.3515 20.3838H68.3702L69.7329 16.8372H70.6475L68.7809 21.4105H67.9222Z" fill="#5F6368"/>
<path d="M72.718 20.7758C73.0727 20.7758 73.3947 20.6437 73.6841 20.3794C73.9734 20.1151 74.118 19.8021 74.118 19.441C73.8753 19.2421 73.5114 19.1427 73.026 19.1427C72.609 19.1427 72.2947 19.2327 72.0834 19.4131C71.8716 19.5937 71.766 19.8051 71.766 20.0477C71.766 20.2717 71.8623 20.4494 72.0553 20.5797C72.248 20.7108 72.469 20.7758 72.718 20.7758ZM72.578 21.5601C72.0927 21.5601 71.6866 21.4201 71.36 21.1401C71.0334 20.8597 70.87 20.4897 70.87 20.0294C70.87 19.5317 71.0627 19.141 71.4487 18.8577C71.8343 18.5747 72.3103 18.4333 72.8766 18.4333C73.3807 18.4333 73.7943 18.5264 74.118 18.7133V18.5824C74.118 18.2464 74.0027 17.9774 73.7727 17.7751C73.5423 17.5731 73.2593 17.4717 72.9234 17.4717C72.6743 17.4717 72.4487 17.531 72.2466 17.649C72.0443 17.7677 71.906 17.929 71.8314 18.1344L71.0473 17.7983C71.153 17.5247 71.3614 17.271 71.6727 17.0377C71.9837 16.8044 72.3943 16.6877 72.9046 16.6877C73.4893 16.6877 73.9747 16.859 74.3607 17.201C74.7464 17.5433 74.9393 18.0258 74.9393 18.6477V21.4104H74.118V20.7758H74.0807C73.7384 21.2983 73.2373 21.5601 72.578 21.5601Z" fill="#5F6368"/>
<path d="M76.9302 21.4103H76.0715V16.837H76.9302V21.4103ZM76.9302 15.689C76.8118 15.8073 76.6688 15.8666 76.5009 15.8666C76.3329 15.8666 76.1895 15.8073 76.0715 15.689C75.9532 15.571 75.8938 15.4277 75.8938 15.2597C75.8938 15.0916 75.9532 14.949 76.0715 14.8303C76.1895 14.7123 76.3329 14.653 76.5009 14.653C76.6688 14.653 76.8118 14.7123 76.9302 14.8303C77.0482 14.949 77.1075 15.0916 77.1075 15.2597C77.1075 15.4277 77.0482 15.571 76.9302 15.689Z" fill="#5F6368"/>
<path d="M78.9085 21.4103H78.0498V14.7277H78.9085V21.4103Z" fill="#5F6368"/>
<path d="M81.6503 20.7758C82.0049 20.7758 82.327 20.6437 82.6163 20.3794C82.9056 20.1151 83.0503 19.8021 83.0503 19.441C82.8076 19.2421 82.4436 19.1427 81.9583 19.1427C81.5413 19.1427 81.227 19.2327 81.0156 19.4131C80.804 19.5937 80.6983 19.8051 80.6983 20.0477C80.6983 20.2717 80.7947 20.4494 80.9876 20.5797C81.1803 20.7108 81.4013 20.7758 81.6503 20.7758ZM81.5103 21.5601C81.0249 21.5601 80.619 21.4201 80.2923 21.1401C79.9656 20.8597 79.8023 20.4897 79.8023 20.0294C79.8023 19.5317 79.9949 19.141 80.381 18.8577C80.7666 18.5747 81.2426 18.4333 81.809 18.4333C82.3129 18.4333 82.7266 18.5264 83.0503 18.7133V18.5824C83.0503 18.2464 82.9349 17.9774 82.7049 17.7751C82.4747 17.5731 82.1916 17.4717 81.8556 17.4717C81.6066 17.4717 81.381 17.531 81.179 17.649C80.9766 17.7677 80.8383 17.929 80.7636 18.1344L79.9797 17.7983C80.0853 17.5247 80.2936 17.271 80.6049 17.0377C80.916 16.8044 81.3266 16.6877 81.837 16.6877C82.4216 16.6877 82.907 16.859 83.2929 17.201C83.6786 17.5433 83.8716 18.0258 83.8716 18.6477V21.4104H83.0503V20.7758H83.0129C82.6706 21.2983 82.1697 21.5601 81.5103 21.5601Z" fill="#5F6368"/>
<path d="M87.1026 20.7758C87.5 20.7758 87.8422 20.6251 88.1284 20.3234C88.4146 20.0214 88.5577 19.6217 88.5577 19.1237C88.5577 18.6261 88.4146 18.2264 88.1284 17.9244C87.8422 17.6228 87.5 17.4717 87.1026 17.4717C86.6974 17.4717 86.3534 17.6211 86.0708 17.9201C85.7878 18.2184 85.6462 18.6198 85.6462 19.1237C85.6462 19.6281 85.7878 20.0294 86.0708 20.3278C86.3534 20.6267 86.6974 20.7758 87.1026 20.7758ZM87.2422 21.5601C86.8939 21.5601 86.581 21.4851 86.3043 21.3361C86.0271 21.1864 85.8201 20.9998 85.6835 20.7758H85.6462V21.4105H84.8248V14.7278H85.6835V16.8374L85.6462 17.4717H85.6835C85.8201 17.2478 86.0271 17.0611 86.3043 16.9117C86.581 16.7624 86.8939 16.6878 87.2422 16.6878C87.8327 16.6878 88.3431 16.9214 88.7724 17.3878C89.2026 17.8544 89.4164 18.4334 89.4164 19.1237C89.4164 19.8144 89.2026 20.3934 88.7724 20.8598C88.3431 21.3264 87.8327 21.5601 87.2422 21.5601Z" fill="#5F6368"/>
<path d="M91.0819 21.4103H90.2241V14.7277H91.0819V21.4103Z" fill="#5F6368"/>
<path d="M95.3853 18.5733C95.3664 18.3119 95.2465 18.0633 95.0259 17.8266C94.8052 17.5903 94.4759 17.4716 94.0414 17.4716C93.7241 17.4716 93.4483 17.5713 93.2146 17.7706C92.981 17.9696 92.8215 18.2372 92.7345 18.5733H95.3853ZM94.1534 21.5599C93.4621 21.5599 92.9009 21.3299 92.4681 20.8693C92.0362 20.409 91.8198 19.8272 91.8198 19.1236C91.8198 18.4579 92.0302 17.8856 92.4491 17.4066C92.8698 16.9276 93.406 16.6879 94.0595 16.6879C94.7379 16.6879 95.281 16.909 95.6879 17.3506C96.0957 17.7922 96.2991 18.3836 96.2991 19.1236L96.2905 19.2826H92.6784C92.7034 19.7433 92.8569 20.1072 93.1405 20.3743C93.4233 20.6419 93.7543 20.7756 94.1345 20.7756C94.7509 20.7756 95.1672 20.5143 95.3853 19.9919L96.1509 20.3093C96.0009 20.6636 95.7552 20.9609 95.4129 21.2006C95.0707 21.4399 94.6509 21.5599 94.1534 21.5599Z" fill="#5F6368"/>
<path d="M100.279 21.4103H99.4207V16.837H100.279V21.4103ZM100.279 15.689C100.161 15.8073 100.018 15.8666 99.85 15.8666C99.6819 15.8666 99.5388 15.8073 99.4207 15.689C99.3017 15.571 99.2431 15.4277 99.2431 15.2597C99.2431 15.0916 99.3017 14.949 99.4207 14.8303C99.5388 14.7123 99.6819 14.653 99.85 14.653C100.018 14.653 100.161 14.7123 100.279 14.8303C100.397 14.949 100.457 15.0916 100.457 15.2597C100.457 15.4277 100.397 15.571 100.279 15.689Z" fill="#5F6368"/>
<path d="M102.22 16.8372V17.4715H102.257C102.382 17.2542 102.578 17.0689 102.846 16.9162C103.113 16.7639 103.399 16.6879 103.704 16.6879C104.27 16.6879 104.703 16.8619 105.002 17.2106C105.3 17.5589 105.449 18.0256 105.449 18.6103V21.4106H104.59V18.7412C104.59 17.8953 104.214 17.4715 103.461 17.4715C103.107 17.4715 102.817 17.6133 102.593 17.8965C102.37 18.1796 102.257 18.5079 102.257 18.8812V21.4106H101.399V16.8372H102.22Z" fill="#5F6368"/>
<path d="M110.691 21.4849C110.213 21.4849 109.847 21.3576 109.595 21.1026C109.343 20.8473 109.217 20.4863 109.217 20.0197V17.621H108.415V16.8373H109.217V15.437H110.076V16.8373H111.196V17.621H110.076V19.9543C110.076 20.4523 110.281 20.701 110.691 20.701C110.847 20.701 110.978 20.6763 111.084 20.6267L111.383 21.364C111.196 21.4447 110.965 21.4849 110.691 21.4849Z" fill="#5F6368"/>
<path d="M112.922 14.7278V16.8372L112.885 17.4716H112.922C113.047 17.2542 113.243 17.0689 113.51 16.9162C113.778 16.7639 114.065 16.6878 114.369 16.6878C114.935 16.6878 115.368 16.8619 115.666 17.2105C115.966 17.5589 116.115 18.0259 116.115 18.6102V21.4105H115.255V18.7412C115.255 17.8952 114.879 17.4716 114.126 17.4716C113.772 17.4716 113.483 17.6132 113.259 17.8966C113.034 18.1796 112.922 18.5078 112.922 18.8812V21.4105H112.064V14.7278H112.922Z" fill="#5F6368"/>
<path d="M120.427 18.5733C120.408 18.3119 120.288 18.0633 120.067 17.8266C119.847 17.5903 119.517 17.4716 119.083 17.4716C118.766 17.4716 118.49 17.5713 118.256 17.7706C118.022 17.9696 117.863 18.2372 117.776 18.5733H120.427ZM119.195 21.5599C118.503 21.5599 117.942 21.3299 117.509 20.8693C117.077 20.409 116.861 19.8272 116.861 19.1236C116.861 18.4579 117.072 17.8856 117.491 17.4066C117.911 16.9276 118.447 16.6879 119.101 16.6879C119.779 16.6879 120.322 16.909 120.729 17.3506C121.137 17.7922 121.341 18.3836 121.341 19.1236L121.332 19.2826H117.72C117.745 19.7433 117.898 20.1072 118.182 20.3743C118.465 20.6419 118.796 20.7756 119.176 20.7756C119.792 20.7756 120.209 20.5143 120.427 19.9919L121.192 20.3093C121.042 20.6636 120.797 20.9609 120.454 21.2006C120.112 21.4399 119.692 21.5599 119.195 21.5599Z" fill="#5F6368"/>
<mask id="mask0_4745_36" style="mask-type:luminance" maskUnits="userSpaceOnUse" x="13" y="9" width="38" height="32">
<path d="M50.4333 9.13641H13.6964V40.8637H50.4333V9.13641Z" fill="white"/>
</mask>
<g mask="url(#mask0_4745_36)">
<path d="M13.6961 9.13684V38.3588C13.6961 39.7368 14.8234 40.8638 16.2011 40.8638H47.928C49.3057 40.8638 50.433 39.7368 50.433 38.3588V9.13684H13.6961ZM26.22 14.1462C26.22 13.2235 26.9674 12.4762 27.89 12.4762H36.2393C37.1617 12.4762 37.9093 13.2235 37.9093 14.1462C37.9093 15.0685 37.1617 15.8158 36.2393 15.8158H27.89C26.9674 15.8158 26.22 15.0685 26.22 14.1462Z" fill="#EEEEEE"/>
<mask id="mask1_4745_36" style="mask-type:alpha" maskUnits="userSpaceOnUse" x="16" y="22" width="32" height="33">
<path d="M16.2011 38.3592C16.2011 29.5978 23.3036 22.4954 32.0649 22.4954C40.8262 22.4954 47.9286 29.5978 47.9286 38.3592C47.9286 47.1204 40.8262 54.2229 32.0649 54.2229C23.3036 54.2229 16.2011 47.1204 16.2011 38.3592Z" fill="#F1F1F1"/>
</mask>
<g mask="url(#mask1_4745_36)">
<path d="M18.7205 22.4954V41.9637H25.8195L32.0648 31.1473H47.9285V22.4954H18.7205ZM18.7205 22.4954V41.9637H25.8195L32.0648 31.1473H47.9285V22.4954H18.7205Z" fill="#DB4437"/>
<path d="M16.2011 54.2226H31.3008L38.3102 47.2133V41.9656L25.8195 41.9636L16.2011 25.4672V54.2226ZM16.2011 54.2226H31.3008L38.3102 47.2133V41.9656L25.8195 41.9636L16.2011 25.4672V54.2226Z" fill="#0F9D58"/>
<path d="M32.0647 31.1472L38.3101 41.9635L31.3027 54.2229H47.9284V31.1472H32.0647ZM32.0647 31.1472L38.3101 41.9635L31.3027 54.2229H47.9284V31.1472H32.0647Z" fill="#FFCD40"/>
<path d="M32.0647 31.1472C36.0477 31.1472 39.2764 34.3762 39.2764 38.3589C39.2764 42.3418 36.0477 45.5709 32.0647 45.5709C28.0817 45.5709 24.8531 42.3418 24.8531 38.3589C24.8531 34.3762 28.0817 31.1472 32.0647 31.1472Z" fill="white"/>
<path d="M32.0647 32.5896C35.2511 32.5896 37.834 35.1726 37.834 38.3589C37.834 41.5453 35.2511 44.1283 32.0647 44.1283C28.8784 44.1283 26.2954 41.5453 26.2954 38.3589C26.2954 35.1726 28.8784 32.5896 32.0647 32.5896Z" fill="#4285F4"/>
</g>
<path opacity="0.0500031" fill-rule="evenodd" clip-rule="evenodd" d="M50.4334 9.13641H13.6964V25H50.4334V9.13641ZM27.8901 12.4761C26.9674 12.4761 26.2201 13.2234 26.2201 14.1461C26.2201 15.0684 26.9674 15.8157 27.8901 15.8157H36.2394C37.1617 15.8157 37.9094 15.0684 37.9094 14.1461C37.9094 13.2234 37.1617 12.4761 36.2394 12.4761H27.8901Z" fill="#212121"/>
<path opacity="0.100006" d="M47.9283 40.655H16.201C14.8237 40.655 13.6964 39.5277 13.6964 38.15V38.3587C13.6964 39.7366 14.8237 40.8637 16.201 40.8637H47.9283C49.306 40.8637 50.4333 39.7366 50.4333 38.3587V38.15C50.4333 39.5277 49.306 40.655 47.9283 40.655ZM27.89 12.476H36.2394C37.1264 12.476 37.851 13.169 37.903 14.0416C37.905 14.0063 37.9094 13.9727 37.9094 13.9373C37.9094 13.0147 37.1621 12.2673 36.2394 12.2673H27.89C26.9677 12.2673 26.22 13.0147 26.22 13.9373C26.22 13.9727 26.2223 14.0063 26.2267 14.0416C26.2787 13.169 27.003 12.476 27.89 12.476Z" fill="#231F20"/>
<path opacity="0.2" d="M13.6964 9.34503H50.4334V9.13641H13.6964V9.34503ZM36.2394 15.8157H27.8901C27.0031 15.8157 26.2788 15.1231 26.2264 14.2504C26.2224 14.2861 26.2201 14.3194 26.2201 14.3548C26.2201 15.2774 26.9674 16.0248 27.8901 16.0248H36.2394C37.1621 16.0248 37.9094 15.2774 37.9094 14.3548C37.9094 14.3194 37.9071 14.2861 37.9031 14.2504C37.8508 15.1231 37.1264 15.8157 36.2394 15.8157Z" fill="white"/>
<path opacity="0.0200043" d="M13.6964 24.7914H50.4334V25H13.6964V24.7914Z" fill="#212121"/>
<path opacity="0.05" d="M13.6964 25H50.4334V25.2087H13.6964V25Z" fill="white"/>
<path d="M13.6961 9.13684V38.3588C13.6961 39.7368 14.8234 40.8638 16.2011 40.8638H47.928C49.3057 40.8638 50.433 39.7368 50.433 38.3588V9.13684H13.6961ZM26.22 14.1462C26.22 13.2235 26.9674 12.4762 27.89 12.4762H36.2393C37.1617 12.4762 37.9093 13.2235 37.9093 14.1462C37.9093 15.0685 37.1617 15.8158 36.2393 15.8158H27.89C26.9674 15.8158 26.22 15.0685 26.22 14.1462Z" fill="url(#paint0_radial_4745_36)"/>
</g>
</g>
<defs>
<radialGradient id="paint0_radial_4745_36" cx="0" cy="0" r="1" gradientUnits="userSpaceOnUse" gradientTransform="translate(13.5924 8.9996) scale(47.5066 47.5066)">
<stop stop-color="white" stop-opacity="0.2"/>
<stop offset="1" stop-color="white" stop-opacity="0"/>
</radialGradient>
<clipPath id="clip0_4745_36">
<rect width="177.586" height="50" fill="white"/>
</clipPath>
</defs>
</svg>
