<svg width="178" height="50" viewBox="0 0 178 50" fill="none" xmlns="http://www.w3.org/2000/svg">
<rect x="0.431034" y="0.431034" width="176.724" height="49.1379" rx="3.01724" fill="white"/>
<rect x="0.431034" y="0.431034" width="176.724" height="49.1379" rx="3.01724" stroke="#D9D9D9" stroke-width="0.862069"/>
<path d="M57.6968 38.109H55.636V30.0054C55.636 29.3417 55.6768 28.5297 55.7583 27.5691H55.7233C55.5953 28.1163 55.4817 28.5093 55.3828 28.748L51.6453 38.109H50.2133L46.4671 28.8178C46.3623 28.5442 46.2517 28.128 46.1353 27.5691H46.1004C46.1469 28.0697 46.1702 28.8877 46.1702 30.0229V38.109H44.2491V25.5869H47.1744L50.4665 33.9262C50.7168 34.5665 50.8798 35.0439 50.9555 35.3583H50.9992C51.2146 34.7004 51.3891 34.2114 51.5231 33.8913L54.8762 25.5869H57.6968V38.109Z" fill="#1A1A1A"/>
<path d="M61.225 27.2897C60.8932 27.2897 60.6079 27.1821 60.3692 26.9666C60.1364 26.7512 60.02 26.4777 60.02 26.1458C60.02 25.814 60.1364 25.5374 60.3692 25.3162C60.6079 25.095 60.8932 24.9844 61.225 24.9844C61.5685 24.9844 61.8595 25.095 62.0983 25.3162C62.3369 25.5374 62.4563 25.814 62.4563 26.1458C62.4563 26.4601 62.3369 26.7308 62.0983 26.9578C61.8595 27.1792 61.5685 27.2897 61.225 27.2897ZM62.2293 38.109H60.2034V29.1672H62.2293V38.109Z" fill="#1A1A1A"/>
<path d="M70.9269 37.6986C70.2109 38.1119 69.3638 38.3186 68.3858 38.3186C67.0585 38.3186 65.9874 37.9052 65.1723 37.0786C64.3573 36.2461 63.9498 35.1691 63.9498 33.8477C63.9498 32.3748 64.3865 31.193 65.2596 30.3023C66.1387 29.4058 67.3118 28.9576 68.7788 28.9576C69.5938 28.9576 70.3127 29.1002 70.9356 29.3854V31.2716C70.3127 30.8059 69.6491 30.573 68.9447 30.573C68.089 30.573 67.3875 30.8641 66.8402 31.4463C66.293 32.0226 66.0194 32.7794 66.0194 33.7167C66.0194 34.6422 66.2755 35.3729 66.7878 35.9084C67.3059 36.444 67.9986 36.7118 68.8661 36.7118C69.5938 36.7118 70.2807 36.4528 70.9269 35.9347V37.6986Z" fill="#1A1A1A"/>
<path d="M77.7733 31.097C77.5289 30.9049 77.1767 30.8089 76.7167 30.8089C76.1172 30.8089 75.6165 31.0795 75.2148 31.6209C74.8131 32.1623 74.6123 32.8987 74.6123 33.8302V38.109H72.5864V29.1672H74.6123V31.0096H74.6472C74.8451 30.3809 75.1479 29.8919 75.5554 29.5426C75.9687 29.1875 76.4286 29.01 76.935 29.01C77.3019 29.01 77.5813 29.0653 77.7733 29.1759V31.097Z" fill="#1A1A1A"/>
<path d="M82.655 38.3186C81.2754 38.3186 80.1722 37.9023 79.3456 37.0698C78.5247 36.2316 78.1143 35.1225 78.1143 33.7429C78.1143 32.2409 78.5421 31.0679 79.398 30.2237C80.2595 29.3796 81.418 28.9576 82.8734 28.9576C84.2706 28.9576 85.3592 29.368 86.1392 30.1889C86.9193 31.0096 87.3094 32.1478 87.3094 33.6032C87.3094 35.0294 86.8873 36.1733 86.0432 37.035C85.2049 37.8907 84.0756 38.3186 82.655 38.3186ZM82.7512 30.573C81.9594 30.573 81.3335 30.8496 80.8737 31.4026C80.4138 31.9557 80.1839 32.7183 80.1839 33.6905C80.1839 34.6277 80.4167 35.3671 80.8824 35.9084C81.3482 36.444 81.9711 36.7118 82.7512 36.7118C83.5487 36.7118 84.16 36.4469 84.5849 35.9172C85.0157 35.3874 85.2311 34.6335 85.2311 33.6555C85.2311 32.6717 85.0157 31.912 84.5849 31.3765C84.16 30.8408 83.5487 30.573 82.7512 30.573Z" fill="#1A1A1A"/>
<path d="M88.4623 37.8296V35.9521C89.219 36.5284 90.0544 36.8167 90.9685 36.8167C92.1909 36.8167 92.8022 36.4557 92.8022 35.7338C92.8022 35.5301 92.7498 35.3584 92.645 35.2187C92.5402 35.0731 92.3976 34.945 92.2171 34.8344C92.0425 34.7238 91.8329 34.6248 91.5884 34.5375C91.3497 34.4502 91.0819 34.3512 90.785 34.2407C90.4183 34.0951 90.0865 33.9408 89.7896 33.7778C89.4984 33.6148 89.254 33.4314 89.056 33.2276C88.8639 33.0181 88.7183 32.7823 88.6194 32.5203C88.5204 32.2584 88.471 31.9528 88.471 31.6035C88.471 31.1727 88.5728 30.7942 88.7766 30.4683C88.9803 30.1365 89.254 29.8599 89.5974 29.6387C89.9409 29.4117 90.3309 29.2428 90.7676 29.1323C91.2042 29.0158 91.6553 28.9576 92.1211 28.9576C92.9477 28.9576 93.687 29.0828 94.3391 29.333V31.1057C93.7104 30.675 92.9884 30.4595 92.1735 30.4595C91.9173 30.4595 91.6845 30.4857 91.4749 30.5382C91.2711 30.5905 91.0964 30.6632 90.9509 30.7565C90.8054 30.8496 90.6919 30.9631 90.6103 31.097C90.5289 31.225 90.4882 31.3677 90.4882 31.5249C90.4882 31.7169 90.5289 31.88 90.6103 32.0139C90.6919 32.1478 90.8112 32.2671 90.9685 32.3719C91.1314 32.4708 91.3236 32.5641 91.5448 32.6513C91.7718 32.7328 92.0309 32.823 92.3219 32.9221C92.7061 33.0792 93.0496 33.2393 93.3524 33.4024C93.6608 33.5653 93.9228 33.7516 94.1382 33.9612C94.3536 34.165 94.5195 34.4036 94.636 34.6772C94.7524 34.945 94.8107 35.2652 94.8107 35.6378C94.8107 36.0918 94.7058 36.4877 94.4962 36.8254C94.2867 37.163 94.0072 37.4424 93.6579 37.6637C93.3087 37.8849 92.904 38.0479 92.4442 38.1527C91.9901 38.2633 91.5098 38.3186 91.0033 38.3186C90.0253 38.3186 89.1783 38.1556 88.4623 37.8296Z" fill="#1A1A1A"/>
<path d="M100.347 38.3186C98.9676 38.3186 97.8644 37.9023 97.0378 37.0698C96.217 36.2316 95.8065 35.1225 95.8065 33.7429C95.8065 32.2409 96.2344 31.0679 97.0901 30.2237C97.9518 29.3796 99.1102 28.9576 100.566 28.9576C101.963 28.9576 103.051 29.368 103.831 30.1889C104.612 31.0096 105.002 32.1478 105.002 33.6032C105.002 35.0294 104.579 36.1733 103.735 37.035C102.897 37.8907 101.768 38.3186 100.347 38.3186ZM100.443 30.573C99.6516 30.573 99.0258 30.8496 98.5659 31.4026C98.106 31.9557 97.8761 32.7183 97.8761 33.6905C97.8761 34.6277 98.1089 35.3671 98.5747 35.9084C99.0403 36.444 99.6633 36.7118 100.443 36.7118C101.241 36.7118 101.852 36.4469 102.277 35.9172C102.708 35.3874 102.923 34.6335 102.923 33.6555C102.923 32.6717 102.708 31.912 102.277 31.3765C101.852 30.8408 101.241 30.573 100.443 30.573Z" fill="#1A1A1A"/>
<path d="M111.473 26.5213C111.199 26.3641 110.888 26.2856 110.538 26.2856C109.554 26.2856 109.063 26.8415 109.063 27.9534V29.1672H111.141V30.7565H109.071V38.109H107.045V30.7565H105.517V29.1672H107.045V27.7176C107.045 26.7746 107.354 26.0323 107.971 25.4909C108.588 24.9437 109.359 24.6701 110.285 24.6701C110.786 24.6701 111.182 24.7253 111.473 24.836V26.5213Z" fill="#1A1A1A"/>
<path d="M117.271 38.013C116.875 38.2109 116.354 38.3099 115.708 38.3099C113.973 38.3099 113.106 37.4774 113.106 35.8124V30.7565H111.612V29.1672H113.106V27.0976L115.131 26.5213V29.1672H117.271V30.7565H115.131V35.2274C115.131 35.7571 115.227 36.1356 115.42 36.3626C115.612 36.5896 115.933 36.7032 116.381 36.7032C116.724 36.7032 117.02 36.6041 117.271 36.4063V38.013Z" fill="#1A1A1A"/>
<path d="M130.483 38.109H123.454V25.5869H130.204V27.3508H125.533V30.8961H129.837V32.6513H125.533V36.3538H130.483V38.109Z" fill="#1A1A1A"/>
<path d="M140.256 38.109H138.229V36.5896H138.195C137.543 37.7423 136.538 38.3186 135.182 38.3186C134.081 38.3186 133.199 37.9198 132.537 37.1223C131.878 36.3189 131.55 35.2274 131.55 33.8477C131.55 32.369 131.913 31.1844 132.641 30.2936C133.375 29.4029 134.35 28.9576 135.567 28.9576C136.772 28.9576 137.648 29.4408 138.195 30.4072H138.229V24.8708H140.256V38.109ZM138.256 34.0224V32.8522C138.256 32.2177 138.049 31.6792 137.636 31.2368C137.222 30.7943 136.696 30.5731 136.055 30.5731C135.298 30.5731 134.702 30.8554 134.266 31.4201C133.834 31.9848 133.619 32.7678 133.619 33.7691C133.619 34.6773 133.825 35.3962 134.239 35.926C134.658 36.4499 135.22 36.7119 135.924 36.7119C136.617 36.7119 137.179 36.4586 137.61 35.9521C138.04 35.4399 138.256 34.7966 138.256 34.0224Z" fill="#1A1A1A"/>
<path d="M150.682 37.393C150.682 40.6763 149.032 42.3179 145.731 42.3179C144.567 42.3179 143.551 42.1229 142.683 41.7329V39.8816C143.661 40.4405 144.59 40.7199 145.469 40.7199C147.594 40.7199 148.657 39.6749 148.657 37.585V36.607H148.622C147.952 37.7481 146.945 38.3186 145.6 38.3186C144.511 38.3186 143.632 37.9227 142.963 37.131C142.299 36.3335 141.967 35.2652 141.967 33.9262C141.967 32.4068 142.326 31.1989 143.041 30.3023C143.758 29.4058 144.741 28.9576 145.993 28.9576C147.174 28.9576 148.051 29.4408 148.622 30.4072H148.657V29.1672H150.682V37.393ZM148.673 34.0135V32.8522C148.673 32.2235 148.464 31.6879 148.045 31.2455C147.632 30.7971 147.114 30.573 146.49 30.573C145.722 30.573 145.12 30.8583 144.683 31.4288C144.253 31.9935 144.037 32.7853 144.037 33.804C144.037 34.683 144.244 35.3874 144.657 35.9172C145.076 36.4411 145.629 36.7031 146.316 36.7031C147.015 36.7031 147.582 36.4528 148.019 35.9521C148.455 35.4457 148.673 34.7995 148.673 34.0135Z" fill="#1A1A1A"/>
<path d="M160.533 34.1882H154.438C154.461 35.0149 154.714 35.6523 155.198 36.1006C155.686 36.5489 156.356 36.773 157.206 36.773C158.161 36.773 159.037 36.4877 159.834 35.9172V37.5501C159.019 38.0624 157.942 38.3186 156.603 38.3186C155.287 38.3186 154.254 37.914 153.503 37.1048C152.758 36.2898 152.385 35.1459 152.385 33.673C152.385 32.2817 152.796 31.1493 153.617 30.2762C154.443 29.3971 155.468 28.9576 156.691 28.9576C157.913 28.9576 158.859 29.3506 159.529 30.1365C160.198 30.9223 160.533 32.0139 160.533 33.4111V34.1882ZM158.576 32.7561C158.571 32.0284 158.399 31.4638 158.061 31.062C157.724 30.6545 157.258 30.4508 156.664 30.4508C156.082 30.4508 155.588 30.6632 155.18 31.0883C154.778 31.5133 154.53 32.0692 154.438 32.7561H158.576Z" fill="#1A1A1A"/>
<path d="M49.7765 19.6905C48.9616 20.1344 48.0537 20.3564 47.0531 20.3564C45.8961 20.3564 44.9592 19.9961 44.2425 19.2757C43.5257 18.5554 43.1672 17.602 43.1672 16.4159C43.1672 15.2043 43.5584 14.211 44.3406 13.436C45.1266 12.6574 46.1235 12.2681 47.3315 12.2681C48.201 12.2681 48.9324 12.3954 49.5255 12.6501V13.9872C48.9251 13.587 48.2102 13.3869 47.3806 13.3869C46.5474 13.3869 45.8633 13.6616 45.3285 14.211C44.7973 14.7604 44.5317 15.4718 44.5317 16.3449C44.5317 17.2437 44.7609 17.9513 45.2194 18.4679C45.6778 18.981 46.3 19.2375 47.0859 19.2375C47.6244 19.2375 48.0901 19.1338 48.4831 18.9264V17.0654H46.8348V15.9738H49.7765V19.6905Z" fill="#1A1A1A"/>
<path d="M55.9412 17.7748H52.1318C52.1463 18.2915 52.3046 18.6899 52.6066 18.9701C52.9122 19.2502 53.3305 19.3903 53.8618 19.3903C54.4586 19.3903 55.0061 19.212 55.5045 18.8554V19.876C54.9952 20.1963 54.3221 20.3563 53.4852 20.3563C52.6629 20.3563 52.0171 20.1035 51.5478 19.5977C51.082 19.0883 50.8492 18.3734 50.8492 17.4528C50.8492 16.5832 51.1057 15.8756 51.6187 15.3298C52.1354 14.7804 52.7757 14.5057 53.5398 14.5057C54.3039 14.5057 54.8951 14.7512 55.3135 15.2425C55.732 15.7336 55.9412 16.4159 55.9412 17.2891V17.7748ZM54.7187 16.8797C54.7151 16.4249 54.6077 16.0721 54.3966 15.821C54.1856 15.5663 53.8946 15.439 53.5235 15.439C53.1596 15.439 52.8504 15.5718 52.5956 15.8373C52.3446 16.1029 52.1899 16.4504 52.1318 16.8797H54.7187Z" fill="#1A1A1A"/>
<path d="M59.9827 20.1653C59.7352 20.2891 59.4096 20.3509 59.0058 20.3509C57.9215 20.3509 57.3793 19.8306 57.3793 18.79V15.63H56.446V14.6367H57.3793V13.3432L58.6455 12.983V14.6367H59.9827V15.63H58.6455V18.4244C58.6455 18.7554 58.7055 18.9919 58.8256 19.1338C58.9456 19.2757 59.1458 19.3467 59.4259 19.3467C59.6406 19.3467 59.8262 19.2848 59.9827 19.1612V20.1653Z" fill="#1A1A1A"/>
<path d="M64.5672 13.4633C64.3599 13.4633 64.1816 13.396 64.0324 13.2614C63.8869 13.1267 63.8141 12.9557 63.8141 12.7483C63.8141 12.5409 63.8869 12.3681 64.0324 12.2299C64.1816 12.0916 64.3599 12.0225 64.5672 12.0225C64.7819 12.0225 64.9639 12.0916 65.113 12.2299C65.2622 12.3681 65.3368 12.5409 65.3368 12.7483C65.3368 12.9448 65.2622 13.114 65.113 13.2559C64.9639 13.3942 64.7819 13.4633 64.5672 13.4633ZM65.1949 20.2253H63.9287V14.6367H65.1949V20.2253Z" fill="#1A1A1A"/>
<path d="M69.6894 20.1653C69.442 20.2891 69.1164 20.3509 68.7124 20.3509C67.6282 20.3509 67.0861 19.8306 67.0861 18.79V15.63H66.1528V14.6367H67.0861V13.3432L68.3523 12.983V14.6367H69.6894V15.63H68.3523V18.4244C68.3523 18.7554 68.4123 18.9919 68.5324 19.1338C68.6524 19.2757 68.8526 19.3467 69.1327 19.3467C69.3474 19.3467 69.533 19.2848 69.6894 19.1612V20.1653Z" fill="#1A1A1A"/>
<path d="M76.7955 12.983C76.6245 12.8848 76.4298 12.8357 76.2115 12.8357C75.5966 12.8357 75.2892 13.1831 75.2892 13.8781V14.6367H76.5881V15.63H75.2946V20.2254H74.0285V15.63H73.0734V14.6367H74.0285V13.7308C74.0285 13.1413 74.2213 12.6774 74.607 12.339C74.9926 11.997 75.4747 11.826 76.0532 11.826C76.3662 11.826 76.6136 11.8606 76.7955 11.9297V12.983Z" fill="#1A1A1A"/>
<path d="M80.6188 15.8428C80.466 15.7228 80.2458 15.6628 79.9585 15.6628C79.5837 15.6628 79.2707 15.8319 79.0197 16.1703C78.7686 16.5087 78.6431 16.969 78.6431 17.5511V20.2254H77.377V14.6367H78.6431V15.7883H78.6649C78.7886 15.3953 78.9779 15.0897 79.2325 14.8714C79.4909 14.6494 79.7783 14.5385 80.0948 14.5385C80.3241 14.5385 80.4988 14.573 80.6188 14.6422V15.8428Z" fill="#1A1A1A"/>
<path d="M83.7816 20.3563C82.9192 20.3563 82.2297 20.0961 81.7131 19.5758C81.2001 19.0519 80.9435 18.3588 80.9435 17.4965C80.9435 16.5578 81.211 15.8246 81.7458 15.297C82.2843 14.7695 83.0083 14.5057 83.9179 14.5057C84.7912 14.5057 85.4716 14.7622 85.9591 15.2752C86.4467 15.7883 86.6905 16.4996 86.6905 17.4092C86.6905 18.3006 86.4267 19.0155 85.8991 19.554C85.3751 20.0889 84.6693 20.3563 83.7816 20.3563ZM83.8416 15.5153C83.3468 15.5153 82.9556 15.6882 82.6682 16.0338C82.3807 16.3794 82.237 16.8562 82.237 17.4638C82.237 18.0496 82.3825 18.5116 82.6737 18.85C82.9647 19.1847 83.354 19.3522 83.8416 19.3522C84.34 19.3522 84.722 19.1865 84.9877 18.8554C85.257 18.5244 85.3916 18.0531 85.3916 17.442C85.3916 16.827 85.257 16.3522 84.9877 16.0175C84.722 15.6828 84.34 15.5153 83.8416 15.5153Z" fill="#1A1A1A"/>
<path d="M96.2279 20.2253H94.9617V17.18C94.9617 16.5942 94.878 16.1703 94.7107 15.9083C94.5469 15.6463 94.2686 15.5153 93.8756 15.5153C93.5446 15.5153 93.2626 15.6809 93.0297 16.012C92.8005 16.3431 92.6859 16.7397 92.6859 17.2018V20.2253H91.4143V17.0762C91.4143 16.0356 91.0468 15.5153 90.3119 15.5153C89.9698 15.5153 89.6878 15.6718 89.4658 15.9848C89.2476 16.2976 89.1384 16.7034 89.1384 17.2018V20.2253H87.8722V14.6367H89.1384V15.5208H89.1603C89.5641 14.844 90.1517 14.5057 90.923 14.5057C91.3088 14.5057 91.6453 14.613 91.9327 14.8277C92.2239 15.0387 92.4221 15.317 92.5277 15.6628C92.9424 14.8914 93.561 14.5057 94.3832 14.5057C95.613 14.5057 96.2279 15.2643 96.2279 16.7815V20.2253Z" fill="#1A1A1A"/>
<mask id="mask0_4745_235" style="mask-type:luminance" maskUnits="userSpaceOnUse" x="11" y="11" width="28" height="28">
<path d="M38.2325 11.2835H11.407V38.1091H38.2325V11.2835Z" fill="white"/>
</mask>
<g mask="url(#mask0_4745_235)">
<path d="M35.6233 31.2455C35.2636 31.4324 34.8927 31.5969 34.5126 31.738C33.3092 32.1858 32.0348 32.4131 30.7507 32.4086C25.7943 32.4086 21.4771 29.003 21.4771 24.6229C21.4835 24.0363 21.6461 23.4622 21.9481 22.9594C22.2502 22.4565 22.6808 22.0433 23.1956 21.7622C18.7107 21.9508 17.558 26.6243 17.558 29.3593C17.558 37.1136 24.694 37.8889 26.2344 37.8889C27.0622 37.8889 28.3092 37.648 29.0637 37.407L29.1998 37.3651C32.0871 36.3673 34.5486 34.4158 36.1787 31.8323C36.2261 31.7537 36.2465 31.662 36.2366 31.5707C36.2268 31.4795 36.1873 31.3941 36.1243 31.3275C36.0612 31.261 35.9781 31.2169 35.8877 31.202C35.7971 31.1873 35.7044 31.2025 35.6233 31.2455Z" fill="url(#paint0_linear_4745_235)"/>
<path opacity="0.35" d="M35.6233 31.2455C35.2636 31.4324 34.8927 31.5969 34.5126 31.738C33.3092 32.1858 32.0348 32.4131 30.7507 32.4086C25.7943 32.4086 21.4771 29.003 21.4771 24.6229C21.4835 24.0363 21.6461 23.4622 21.9481 22.9594C22.2502 22.4565 22.6808 22.0433 23.1956 21.7622C18.7107 21.9508 17.558 26.6243 17.558 29.3593C17.558 37.1136 24.694 37.8889 26.2344 37.8889C27.0622 37.8889 28.3092 37.648 29.0637 37.407L29.1998 37.3651C32.0871 36.3673 34.5486 34.4158 36.1787 31.8323C36.2261 31.7537 36.2465 31.662 36.2366 31.5707C36.2268 31.4795 36.1873 31.3941 36.1243 31.3275C36.0612 31.261 35.9781 31.2169 35.8877 31.202C35.7971 31.1873 35.7044 31.2025 35.6233 31.2455Z" fill="url(#paint1_radial_4745_235)"/>
<path d="M22.4831 36.5686C21.5503 35.9893 20.7417 35.2306 20.1044 34.3366C19.3764 33.3403 18.8753 32.1967 18.6364 30.9862C18.3973 29.7757 18.426 28.5275 18.7207 27.3292C19.0152 26.131 19.5685 25.0117 20.3415 24.05C21.1145 23.0884 22.0887 22.3074 23.1956 21.7622C23.5309 21.605 24.0863 21.3325 24.8303 21.343C25.3538 21.347 25.8693 21.4721 26.3364 21.7084C26.8036 21.9448 27.2098 22.2859 27.5233 22.7052C27.945 23.2722 28.176 23.9583 28.1835 24.6648C28.1835 24.6438 30.7508 16.3237 19.8005 16.3237C15.2004 16.3237 11.4175 20.6829 11.4175 24.518C11.3992 26.5439 11.8323 28.5486 12.6854 30.3861C14.0825 33.3611 16.5233 35.7195 19.5444 37.0137C22.5655 38.3079 25.9567 38.4479 29.0742 37.4069C27.982 37.7519 26.8279 37.8556 25.6917 37.7108C24.5555 37.5661 23.4643 37.1764 22.4936 36.5686H22.4831Z" fill="url(#paint2_linear_4745_235)"/>
<path opacity="0.41" d="M22.4831 36.5686C21.5503 35.9893 20.7417 35.2306 20.1044 34.3366C19.3764 33.3403 18.8753 32.1967 18.6364 30.9862C18.3973 29.7757 18.426 28.5275 18.7207 27.3292C19.0152 26.131 19.5685 25.0117 20.3415 24.05C21.1145 23.0884 22.0887 22.3074 23.1956 21.7622C23.5309 21.605 24.0863 21.3325 24.8303 21.343C25.3538 21.347 25.8693 21.4721 26.3364 21.7084C26.8036 21.9448 27.2098 22.2859 27.5233 22.7052C27.945 23.2722 28.176 23.9583 28.1835 24.6648C28.1835 24.6438 30.7508 16.3237 19.8005 16.3237C15.2004 16.3237 11.4175 20.6829 11.4175 24.518C11.3992 26.5439 11.8323 28.5486 12.6854 30.3861C14.0825 33.3611 16.5233 35.7195 19.5444 37.0137C22.5655 38.3079 25.9567 38.4479 29.0742 37.4069C27.982 37.7519 26.8279 37.8556 25.6917 37.7108C24.5555 37.5661 23.4643 37.1764 22.4936 36.5686H22.4831Z" fill="url(#paint3_radial_4745_235)"/>
<path d="M27.3766 26.8759C27.2822 26.9807 27.0203 27.1379 27.0203 27.4627C27.0203 27.7351 27.1984 28.0076 27.5232 28.2276C29.0218 29.2755 31.8615 29.1288 31.872 29.1288C32.989 29.1281 34.0855 28.8278 35.047 28.2591C36.0151 27.6928 36.8183 26.8835 37.377 25.9111C37.9358 24.9387 38.2307 23.8373 38.2325 22.7158C38.2639 20.3685 37.3942 18.8072 37.0484 18.1156C34.8165 13.7774 30.0277 11.2835 24.8198 11.2835C21.2949 11.2832 17.9116 12.6704 15.4015 15.145C12.8915 17.6198 11.4566 20.9832 11.407 24.5076C11.4594 20.683 15.2632 17.5916 19.79 17.5916C20.1567 17.5916 22.2524 17.6232 24.191 18.6395C25.553 19.3163 26.6808 20.3858 27.429 21.7098C28.0681 22.8206 28.1835 24.2352 28.1835 24.8011C28.1835 25.3669 27.9004 26.1947 27.3661 26.8864L27.3766 26.8759Z" fill="url(#paint4_radial_4745_235)"/>
<path d="M27.3766 26.8759C27.2822 26.9807 27.0203 27.1379 27.0203 27.4627C27.0203 27.7351 27.1984 28.0076 27.5232 28.2276C29.0218 29.2755 31.8615 29.1288 31.872 29.1288C32.989 29.1281 34.0855 28.8278 35.047 28.2591C36.0151 27.6928 36.8183 26.8835 37.377 25.9111C37.9358 24.9387 38.2307 23.8373 38.2325 22.7158C38.2639 20.3685 37.3942 18.8072 37.0484 18.1156C34.8165 13.7774 30.0277 11.2835 24.8198 11.2835C21.2949 11.2832 17.9116 12.6704 15.4015 15.145C12.8915 17.6198 11.4566 20.9832 11.407 24.5076C11.4594 20.683 15.2632 17.5916 19.79 17.5916C20.1567 17.5916 22.2524 17.6232 24.191 18.6395C25.553 19.3163 26.6808 20.3858 27.429 21.7098C28.0681 22.8206 28.1835 24.2352 28.1835 24.8011C28.1835 25.3669 27.9004 26.1947 27.3661 26.8864L27.3766 26.8759Z" fill="url(#paint5_radial_4745_235)"/>
</g>
<defs>
<linearGradient id="paint0_linear_4745_235" x1="17.558" y1="29.8308" x2="36.252" y2="29.8308" gradientUnits="userSpaceOnUse">
<stop stop-color="#0C59A4"/>
<stop offset="1" stop-color="#114A8B"/>
</linearGradient>
<radialGradient id="paint1_radial_4745_235" cx="0" cy="0" r="1" gradientUnits="userSpaceOnUse" gradientTransform="translate(27.8796 29.9717) scale(9.99671 9.49687)">
<stop offset="0.7" stop-opacity="0"/>
<stop offset="0.9" stop-opacity="0.5"/>
<stop offset="1"/>
</radialGradient>
<linearGradient id="paint2_linear_4745_235" x1="27.408" y1="21.7202" x2="15.7453" y2="34.431" gradientUnits="userSpaceOnUse">
<stop stop-color="#1B9DE2"/>
<stop offset="0.2" stop-color="#1595DF"/>
<stop offset="0.7" stop-color="#0680D7"/>
<stop offset="1" stop-color="#0078D4"/>
</linearGradient>
<radialGradient id="paint3_radial_4745_235" cx="0" cy="0" r="1" gradientTransform="matrix(2.25083 -14.8555 -12.0044 -1.80067 18.8002 32.1295)" gradientUnits="userSpaceOnUse">
<stop offset="0.8" stop-opacity="0"/>
<stop offset="0.9" stop-opacity="0.5"/>
<stop offset="1"/>
</radialGradient>
<radialGradient id="paint4_radial_4745_235" cx="0" cy="0" r="1" gradientTransform="matrix(-0.848358 21.209 45.1751 1.69672 14.1199 16.2417)" gradientUnits="userSpaceOnUse">
<stop stop-color="#35C1F1"/>
<stop offset="0.1" stop-color="#34C1ED"/>
<stop offset="0.2" stop-color="#2FC2DF"/>
<stop offset="0.3" stop-color="#2BC3D2"/>
<stop offset="0.7" stop-color="#36C752"/>
</radialGradient>
<radialGradient id="paint5_radial_4745_235" cx="0" cy="0" r="1" gradientTransform="matrix(2.85483 9.78797 7.95273 -2.34503 36.5622 19.3836)" gradientUnits="userSpaceOnUse">
<stop stop-color="#66EB6E"/>
<stop offset="1" stop-color="#66EB6E" stop-opacity="0"/>
</radialGradient>
</defs>
</svg>
