<svg width="178" height="50" viewBox="0 0 178 50" fill="none" xmlns="http://www.w3.org/2000/svg">
<rect x="0.431034" y="0.431034" width="176.724" height="49.1379" rx="3.01724" fill="white"/>
<rect x="0.431034" y="0.431034" width="176.724" height="49.1379" rx="3.01724" stroke="#D9D9D9" stroke-width="0.862069"/>
<path d="M39.0249 20.8758C38.4111 19.4 37.1669 17.8055 36.1918 17.3007C36.8869 18.6469 37.3697 20.0924 37.6221 21.5876L37.6249 21.611C36.0276 17.6303 33.32 16.0248 31.109 12.5296C30.9945 12.3517 30.8842 12.171 30.7766 11.9889C30.7214 11.8938 30.669 11.7958 30.6207 11.6979C30.5297 11.52 30.458 11.3324 30.4097 11.1379C30.4097 11.12 30.3959 11.1034 30.378 11.102C30.3697 11.0993 30.36 11.0993 30.3518 11.102C30.3504 11.102 30.3476 11.1048 30.3449 11.1062C30.3421 11.1076 30.338 11.1103 30.3352 11.1117L30.3407 11.102C26.7931 13.1793 25.5904 17.0234 25.4787 18.9476C24.0621 19.0455 22.7076 19.5669 21.5918 20.4455C21.4759 20.3476 21.3531 20.2551 21.2276 20.1696C20.9063 19.0427 20.8925 17.851 21.1876 16.7186C19.8856 17.3503 18.7269 18.2441 17.789 19.3462H17.7821C17.2221 18.6372 17.2621 16.2979 17.2938 15.8083C17.1283 15.8745 16.9697 15.9586 16.8221 16.0579C16.3283 16.411 15.8663 16.8069 15.4414 17.24C14.9573 17.7296 14.5159 18.2607 14.1214 18.8234C13.2138 20.1103 12.5697 21.5655 12.2263 23.102L12.2069 23.1958C12.1545 23.4883 12.109 23.7834 12.0676 24.0772C12.0676 24.0883 12.0649 24.0979 12.0649 24.1076C11.9407 24.7503 11.8649 25.4014 11.8359 26.0538V26.1269C11.8428 33.9269 18.1711 40.2441 25.9711 40.2372C32.84 40.2317 38.709 35.2841 39.8759 28.5145C39.8994 28.3324 39.9187 28.1517 39.9394 27.9683C40.2304 25.5641 39.9159 23.1255 39.0235 20.8745L39.0249 20.8758ZM22.7476 31.9296C22.8138 31.9614 22.8759 31.9958 22.9435 32.0262L22.9531 32.0317C22.8842 31.9986 22.8166 31.9641 22.7476 31.9296ZM37.6249 21.6138V21.6L37.6276 21.6151H37.6249V21.6138Z" fill="url(#paint0_linear_4745_283)"/>
<path d="M39.0248 20.8759C38.411 19.4 37.1669 17.8055 36.1917 17.3007C36.8869 18.6469 37.3696 20.0924 37.6221 21.5876V21.6014L37.6248 21.6166C38.7131 24.7311 38.5559 28.1462 37.1848 31.1476C35.5669 34.6207 31.6483 38.1793 25.5159 38.0069C18.8896 37.8193 13.0538 32.9021 11.9627 26.4621C11.7641 25.4469 11.9627 24.9311 12.0621 24.1062C11.9255 24.7476 11.8496 25.4 11.8345 26.0552V26.1283C11.8414 33.9283 18.1696 40.2455 25.9696 40.2386C32.8386 40.2331 38.7076 35.2855 39.8745 28.5159C39.8979 28.3338 39.9172 28.1531 39.9379 27.9697C40.229 25.5655 39.9145 23.1269 39.0221 20.8759H39.0248Z" fill="url(#paint1_radial_4745_283)"/>
<path d="M39.0248 20.8759C38.411 19.4 37.1669 17.8055 36.1917 17.3007C36.8869 18.6469 37.3696 20.0924 37.6221 21.5876V21.6014L37.6248 21.6166C38.7131 24.7311 38.5559 28.1462 37.1848 31.1476C35.5669 34.6207 31.6483 38.1793 25.5159 38.0069C18.8896 37.8193 13.0538 32.9021 11.9627 26.4621C11.7641 25.4469 11.9627 24.9311 12.0621 24.1062C11.9255 24.7476 11.8496 25.4 11.8345 26.0552V26.1283C11.8414 33.9283 18.1696 40.2455 25.9696 40.2386C32.8386 40.2331 38.7076 35.2855 39.8745 28.5159C39.8979 28.3338 39.9172 28.1531 39.9379 27.9697C40.229 25.5655 39.9145 23.1269 39.0221 20.8759H39.0248Z" fill="url(#paint2_radial_4745_283)"/>
<path d="M32.1614 22.8911C32.1917 22.9131 32.2207 22.9338 32.2497 22.9559C31.8952 22.3269 31.4538 21.7504 30.938 21.2455C26.549 16.8552 29.7876 11.7269 30.3338 11.4662L30.3393 11.4579C26.7917 13.5352 25.589 17.3793 25.4773 19.3035C25.6414 19.2924 25.8055 19.2786 25.9738 19.2786C28.5366 19.2828 30.898 20.6635 32.1614 22.8924V22.8911Z" fill="url(#paint3_radial_4745_283)"/>
<path d="M25.9835 23.7669C25.96 24.1186 24.7186 25.3296 24.2855 25.3296C20.2704 25.3296 19.618 27.7586 19.618 27.7586C19.7959 29.8041 21.2207 31.4896 22.9448 32.3807C23.0235 32.4207 23.1021 32.4593 23.1835 32.4938C23.3214 32.5545 23.4593 32.611 23.5986 32.6634C24.1904 32.8731 24.8097 32.9917 25.4359 33.0179C32.4745 33.3476 33.8373 24.6014 28.7586 22.0621C29.9573 21.9062 31.1697 22.2014 32.1642 22.8883C30.9007 20.6593 28.538 19.28 25.9766 19.2745C25.8083 19.2745 25.6455 19.2883 25.48 19.2993C24.0635 19.3972 22.709 19.9186 21.5931 20.7972C21.8083 20.9793 22.0511 21.2234 22.5628 21.7269C23.5214 22.6703 25.9793 23.6483 25.9848 23.7641L25.9835 23.7669Z" fill="url(#paint4_radial_4745_283)"/>
<path d="M25.9835 23.7669C25.96 24.1186 24.7186 25.3296 24.2855 25.3296C20.2704 25.3296 19.618 27.7586 19.618 27.7586C19.7959 29.8041 21.2207 31.4896 22.9448 32.3807C23.0235 32.4207 23.1021 32.4593 23.1835 32.4938C23.3214 32.5545 23.4593 32.611 23.5986 32.6634C24.1904 32.8731 24.8097 32.9917 25.4359 33.0179C32.4745 33.3476 33.8373 24.6014 28.7586 22.0621C29.9573 21.9062 31.1697 22.2014 32.1642 22.8883C30.9007 20.6593 28.538 19.28 25.9766 19.2745C25.8083 19.2745 25.6455 19.2883 25.48 19.2993C24.0635 19.3972 22.709 19.9186 21.5931 20.7972C21.8083 20.9793 22.0511 21.2234 22.5628 21.7269C23.5214 22.6703 25.9793 23.6483 25.9848 23.7641L25.9835 23.7669Z" fill="url(#paint5_radial_4745_283)"/>
<path d="M20.9324 20.3311C21.0304 20.3931 21.1283 20.4579 21.2235 20.5242C20.9021 19.3973 20.8883 18.2055 21.1835 17.0731C19.8814 17.7048 18.7228 18.5986 17.7849 19.7007C17.8538 19.6993 19.9021 19.6621 20.9324 20.3324V20.3311Z" fill="url(#paint6_radial_4745_283)"/>
<path d="M11.9656 26.4621C13.0552 32.9021 18.8925 37.8193 25.5187 38.0069C31.6511 38.1807 35.5683 34.6207 37.1876 31.1476C38.5587 28.1462 38.7159 24.731 37.6276 21.6166V21.6028C37.6276 21.5917 37.6249 21.5862 37.6276 21.589L37.6304 21.6124C38.1311 24.8828 36.4676 28.0524 33.8662 30.1959L33.858 30.2138C28.7904 34.3407 23.9407 32.7034 22.9587 32.0359C22.8897 32.0028 22.8221 31.9683 22.7531 31.9338C19.7987 30.5214 18.578 27.829 18.84 25.5214C17.4069 25.5421 16.0966 24.7172 15.4952 23.4166C17.0718 22.451 19.0373 22.371 20.6869 23.2083C22.3587 23.9669 24.2621 24.0428 25.989 23.4166C25.9835 23.3021 23.5256 22.3228 22.5669 21.3793C22.0552 20.8745 21.8125 20.6317 21.5973 20.4497C21.4814 20.3517 21.3587 20.2593 21.2331 20.1738C21.1366 20.109 21.04 20.0441 20.9421 19.9807C19.9118 19.3103 17.8635 19.3476 17.7959 19.349H17.789C17.229 18.64 17.269 16.3007 17.3007 15.811C17.1352 15.8772 16.9766 15.9614 16.829 16.0607C16.3352 16.4138 15.8731 16.8097 15.4483 17.2428C14.9628 17.731 14.52 18.2607 14.1228 18.8234C13.2152 20.1103 12.5711 21.5655 12.2276 23.1021C12.2207 23.131 11.7187 25.3241 11.9669 26.4621H11.9656Z" fill="url(#paint7_radial_4745_283)"/>
<path d="M30.9393 21.2441C31.4552 21.7504 31.8966 22.3269 32.251 22.9573C32.3241 23.0124 32.3945 23.069 32.4621 23.131C35.6635 26.0828 33.9862 30.2552 33.8607 30.5517C36.4621 28.4083 38.1241 25.24 37.6248 21.9683C36.0276 17.9862 33.32 16.3807 31.109 12.8855C30.9945 12.7076 30.8841 12.5269 30.7766 12.3448C30.7214 12.2497 30.669 12.1517 30.6207 12.0538C30.5297 11.8759 30.4579 11.6883 30.4097 11.4938C30.4097 11.4759 30.3959 11.4593 30.3779 11.4579C30.3697 11.4552 30.36 11.4552 30.3517 11.4579C30.3504 11.4579 30.3476 11.4607 30.3448 11.4621C30.3421 11.4635 30.3379 11.4662 30.3352 11.4676C29.789 11.7269 26.5504 16.8552 30.9407 21.2455L30.9393 21.2441Z" fill="url(#paint8_radial_4745_283)"/>
<path d="M32.4593 23.1283C32.3917 23.0676 32.3214 23.0097 32.2483 22.9545C32.2193 22.9324 32.1917 22.9117 32.16 22.8897C31.1669 22.2014 29.9531 21.9076 28.7545 22.0635C33.8345 24.6028 32.4717 33.349 25.4317 33.0193C24.8055 32.9931 24.1862 32.8745 23.5945 32.6648C23.4566 32.6124 23.3186 32.5559 23.1793 32.4952C23.0993 32.4593 23.0193 32.4207 22.9407 32.3821L22.9504 32.3876C23.9324 33.0579 28.7807 34.6952 33.8497 30.5655L33.8579 30.5476C33.9848 30.2524 35.6621 26.0786 32.4593 23.1297V23.1283Z" fill="url(#paint9_radial_4745_283)"/>
<path d="M19.618 27.76C19.618 27.76 20.2704 25.331 24.2855 25.331C24.72 25.331 25.9614 24.12 25.9835 23.7683C24.2566 24.3945 22.3531 24.3186 20.6814 23.56C19.0318 22.7227 17.0662 22.8027 15.4897 23.7683C16.0911 25.0689 17.4014 25.8938 18.8345 25.8731C18.5724 28.1821 19.7931 30.8745 22.7476 32.2855C22.8138 32.3172 22.8759 32.3517 22.9435 32.3821C21.2193 31.491 19.7945 29.8069 19.6166 27.7614L19.618 27.76Z" fill="url(#paint10_radial_4745_283)"/>
<path d="M39.0248 20.8758C38.411 19.4 37.1669 17.8055 36.1917 17.3007C36.8869 18.6469 37.3696 20.0924 37.6221 21.5876L37.6248 21.611C36.0276 17.6303 33.32 16.0248 31.109 12.5296C30.9945 12.3517 30.8841 12.171 30.7765 11.9889C30.7214 11.8938 30.669 11.7958 30.6207 11.6979C30.5296 11.52 30.4579 11.3324 30.4096 11.1379C30.4096 11.12 30.3959 11.1034 30.3779 11.102C30.3696 11.0993 30.36 11.0993 30.3517 11.102C30.3503 11.102 30.3476 11.1048 30.3448 11.1062C30.3421 11.1076 30.3379 11.1103 30.3352 11.1117L30.3407 11.102C26.7931 13.1793 25.5903 17.0234 25.4786 18.9476C25.6427 18.9365 25.8069 18.9227 25.9752 18.9227C28.5379 18.9269 30.8993 20.3076 32.1627 22.5365C31.1696 21.8483 29.9559 21.5545 28.7572 21.7103C33.8372 24.2496 32.4745 32.9958 25.4345 32.6662C24.8083 32.64 24.189 32.5214 23.5972 32.3117C23.4593 32.2593 23.3214 32.2027 23.1821 32.142C23.1021 32.1062 23.0221 32.0676 22.9434 32.0289L22.9531 32.0345C22.8841 32.0014 22.8165 31.9669 22.7476 31.9324C22.8138 31.9641 22.8759 31.9986 22.9434 32.0289C21.2193 31.1379 19.7945 29.4524 19.6165 27.4069C19.6165 27.4069 20.269 24.9779 24.2841 24.9779C24.7186 24.9779 25.96 23.7669 25.9821 23.4151C25.9765 23.3007 23.5186 22.3214 22.56 21.3779C22.0483 20.8731 21.8055 20.6303 21.5903 20.4483C21.4745 20.3503 21.3517 20.2579 21.2262 20.1724C20.9048 19.0455 20.891 17.8538 21.1862 16.7214C19.8841 17.3531 18.7255 18.2469 17.7876 19.3489H17.7807C17.2207 18.64 17.2607 16.3007 17.2924 15.811C17.1269 15.8772 16.9683 15.9614 16.8207 16.0607C16.3269 16.4138 15.8648 16.8096 15.44 17.2427C14.9559 17.7324 14.5145 18.2634 14.12 18.8262C13.2124 20.1131 12.5683 21.5683 12.2248 23.1048L12.2055 23.1986C12.1793 23.3227 12.0593 23.9545 12.0427 24.0896C12.0427 24.0993 12.0427 24.0786 12.0427 24.0896C11.9338 24.7407 11.8648 25.3986 11.8345 26.0579V26.131C11.8414 33.931 18.1696 40.2483 25.9696 40.2414C32.8386 40.2358 38.7076 35.2883 39.8745 28.5186C39.8979 28.3365 39.9172 28.1558 39.9379 27.9724C40.229 25.5683 39.9145 23.1296 39.0221 20.8786L39.0248 20.8758Z" fill="url(#paint11_linear_4745_283)"/>
<path d="M46.7324 13.9669H50.6524V15.0304H47.8538V16.4663H50.6524V17.5187H47.8538V19.8428H46.731V13.9656L46.7324 13.9669ZM51.9862 13.5587C52.3338 13.5476 52.6248 13.8221 52.6359 14.1697C52.6359 14.1863 52.6359 14.2014 52.6359 14.218C52.6083 14.5794 52.2938 14.8497 51.9324 14.8235C51.6083 14.7987 51.3517 14.5421 51.3269 14.218C51.3228 13.858 51.611 13.5628 51.9724 13.5587C51.9779 13.5587 51.9821 13.5587 51.9876 13.5587H51.9862ZM51.4442 15.4938H52.5379V19.8442H51.4442V15.4938ZM55.7655 16.6994C55.6124 16.578 55.4221 16.509 55.2262 16.5063C54.7779 16.5063 54.52 16.7973 54.52 17.4318V19.8442H53.4262V15.4938H54.4786V16.1201C54.6442 15.709 55.0524 15.4483 55.4952 15.4718C55.7545 15.4718 56.0083 15.5518 56.2235 15.698L55.7642 16.6994H55.7655ZM56.2248 17.6869C56.1904 16.4621 57.1559 15.4414 58.3807 15.4069C58.4069 15.4069 58.4317 15.4069 58.4579 15.4069C59.6386 15.3573 60.6345 16.2745 60.6842 17.4552C60.6869 17.509 60.6869 17.5642 60.6842 17.6194V18.0745H57.3062C57.4193 18.6373 57.9324 19.0276 58.5048 18.9849C58.9642 19.0056 59.3931 18.7518 59.5986 18.3394L60.5242 18.8938C60.08 19.5766 59.3048 19.9711 58.491 19.9256C57.3269 20.018 56.309 19.1504 56.2166 17.9863C56.2083 17.8869 56.2083 17.7876 56.2138 17.6883H56.2248V17.6869ZM57.3173 17.1987H59.5986C59.4842 16.6635 58.9904 16.2952 58.4442 16.3394C57.9104 16.3187 57.4359 16.6787 57.3145 17.1987H57.3186H57.3173ZM60.9614 15.4938H61.7379V15.2787C61.7379 14.098 62.2373 13.6056 63.3297 13.6056H63.7159V14.5642H63.4028C62.8897 14.5642 62.7766 14.7394 62.7766 15.2925V15.5076H63.7173V16.4911H62.8028V19.8428H61.7393V16.4911H60.9628V15.4925L60.9614 15.4938ZM63.9242 17.6801C63.9035 16.4525 64.8828 15.4414 66.109 15.4207C66.1366 15.4207 66.1628 15.4207 66.1904 15.4207C67.4386 15.4207 68.4497 16.4318 68.4497 17.6801C68.4497 18.9283 67.4386 19.9394 66.1904 19.9394C64.9835 19.9932 63.9628 19.058 63.909 17.8525C63.9062 17.7876 63.9062 17.7228 63.909 17.6594L63.9242 17.6814V17.6801ZM67.3821 17.6801C67.4179 17.0235 66.9159 16.4607 66.2579 16.4249C65.6014 16.389 65.0386 16.8911 65.0028 17.549C65 17.5932 65 17.6373 65.0028 17.6814C64.9669 18.338 65.469 18.9007 66.1269 18.9366C66.7835 18.9725 67.3462 18.4704 67.3821 17.8125C67.3848 17.7683 67.3848 17.7242 67.3821 17.6801ZM69.9504 17.6318L68.3835 15.5076H69.6621L70.5876 16.8456L71.5352 15.5076H72.8138L71.2221 17.6207L72.9021 19.8428H71.6083L70.5697 18.429L69.5683 19.8428H68.2745L69.9504 17.6304V17.6318ZM79.3145 16.8056C79.8042 16.5752 80.1104 16.0759 80.0938 15.5338C80.0938 14.5835 79.3655 13.9711 78.2717 13.9711H75.7573V19.8442H78.3517C79.4455 19.8442 80.2097 19.2138 80.2097 18.1863C80.2373 17.5821 79.8773 17.0263 79.3131 16.8056H79.3145ZM76.4317 14.5821H78.2538C78.9821 14.5821 79.4124 14.9683 79.4124 15.5325C79.4124 16.0966 79.0262 16.5132 78.3186 16.5132H76.4276L76.4317 14.5821ZM78.3448 19.2276H76.4317V17.1325H78.3159C79.1173 17.1325 79.5366 17.5587 79.5366 18.1821C79.5366 18.8056 79.0704 19.2276 78.3448 19.2276ZM81.6469 16.3132V15.5007H81.0124V19.8442H81.6648V17.4649C81.6648 16.5063 82.08 16.0869 82.8055 16.0869C82.9931 16.0801 83.1779 16.1283 83.3379 16.2249L83.611 15.5987C83.3876 15.4787 83.1352 15.4221 82.8828 15.4345C82.3131 15.3987 81.7973 15.7697 81.6469 16.3201V16.3132ZM85.8952 15.4056C84.6635 15.3932 83.6552 16.3821 83.6428 17.6138C83.6428 17.6304 83.6428 17.6483 83.6428 17.6649C83.6166 18.8883 84.5862 19.9007 85.8097 19.9269C85.8373 19.9269 85.8662 19.9269 85.8938 19.9269C87.1421 19.9766 88.1959 19.0056 88.2455 17.7573C88.2952 16.509 87.3241 15.4552 86.0759 15.4056C86.0152 15.4028 85.9545 15.4028 85.8938 15.4056H85.8952ZM85.8952 19.3007C85.0262 19.3076 84.3159 18.6083 84.309 17.7394C84.309 17.7118 84.309 17.6842 84.3104 17.658C84.269 16.7794 84.9462 16.0332 85.8248 15.9918C86.7035 15.9504 87.4497 16.6276 87.491 17.5063C87.4938 17.5573 87.4938 17.6083 87.491 17.658C87.5269 18.5325 86.8483 19.2704 85.9724 19.3076C85.9462 19.3076 85.92 19.309 85.8952 19.3076V19.3007ZM93.4524 18.9145L92.1586 15.4925H91.5462L90.2166 18.9352L89.1228 15.4925H88.4304L89.8552 19.8428H90.5007L91.8345 16.3959L93.1724 19.8428H93.7669L95.2759 15.4952H94.5904L93.4538 18.9132L93.4524 18.9145ZM97.5986 17.3297C96.9214 17.1918 96.4 17.1035 96.4 16.6525C96.4 16.2014 96.6731 15.9601 97.3407 15.9601C97.8152 15.9476 98.2621 16.1752 98.5324 16.5656L99.0786 16.2014C98.6648 15.6759 98.0235 15.3807 97.3545 15.4069C96.3269 15.4069 95.7366 15.9932 95.7366 16.6676C95.7366 17.538 96.5352 17.7394 97.2814 17.8842C97.9186 18.0111 98.5131 18.1104 98.5131 18.5904C98.5131 19.0704 98.149 19.3476 97.4855 19.3476C96.9255 19.3711 96.3945 19.1021 96.0828 18.6373L95.5104 19.0235C95.96 19.6456 96.7007 19.9904 97.4676 19.9338C98.6042 19.9338 99.1835 19.2676 99.1835 18.5821C99.1766 17.6897 98.3448 17.4787 97.5986 17.3366V17.3297ZM101.971 15.4056C100.739 15.3849 99.7255 16.3669 99.7048 17.5987C99.7048 17.6263 99.7048 17.6552 99.7048 17.6828C99.6717 18.8897 100.622 19.8952 101.829 19.9297C101.884 19.9311 101.941 19.9297 101.996 19.9283C102.819 19.9656 103.596 19.5449 104.014 18.8345L103.452 18.5063C103.172 19.0469 102.603 19.3738 101.994 19.3449C101.153 19.3904 100.426 18.7656 100.343 17.9269H104.183V17.6276C104.222 16.4428 103.294 15.4511 102.109 15.4125C102.063 15.4111 102.018 15.4111 101.972 15.4125L101.968 15.4056H101.971ZM100.364 17.3366C100.497 16.5545 101.178 15.9849 101.971 15.9918C102.764 15.9463 103.448 16.5435 103.509 17.3366H100.364ZM106.85 15.4276C106.279 15.3904 105.76 15.7601 105.611 16.3132V15.5007H104.974V19.8442H105.626V17.4649C105.626 16.5063 106.046 16.0869 106.77 16.0869C106.957 16.0801 107.142 16.1283 107.302 16.2249L107.575 15.5987C107.353 15.4814 107.105 15.4249 106.854 15.4345L106.85 15.4276ZM51.4442 22.9187L46.0593 37.1918H48.8938L49.8345 34.5904H55.7959L56.7366 37.1918H59.5711L54.1752 22.9187H51.4455H51.4442ZM50.7517 32.0911L52.8248 26.4221L54.8759 32.0911H50.7517ZM65.2386 22.9187H60.6262V37.1918H65.2897C69.549 37.1918 72.6786 34.1242 72.6786 30.058C72.6786 25.9918 69.7711 22.9201 65.2386 22.9201V22.9187ZM65.1228 34.6125H63.3986V25.4814H65.0414C68.1683 25.4814 69.891 27.4387 69.891 30.058C69.891 32.6773 68.0152 34.6125 65.1214 34.6125H65.1228ZM78.9683 22.9187H74.3476V37.1918H79.0193C83.2828 37.1918 86.4235 34.1242 86.4235 30.0469C86.4235 25.9697 83.509 22.9201 78.9614 22.9201H78.9683V22.9187ZM78.8524 34.6125H77.1324V25.4814H78.7724C81.9021 25.4814 83.6221 27.4387 83.6221 30.058C83.6152 32.6194 81.7379 34.6125 78.8455 34.6125H78.8524ZM88.0414 31.2194H95.2745V28.8911H88.0345L88.0414 31.2194ZM103.986 22.7256C99.9379 22.7242 96.6538 26.0042 96.651 30.0525C96.6497 34.1007 99.9297 37.3849 103.978 37.3876C108.026 37.389 111.31 34.109 111.313 30.0607C111.313 30.0552 111.313 30.0511 111.313 30.0456C111.331 26.0207 108.083 22.7435 104.059 22.7256C104.034 22.7256 104.011 22.7256 103.986 22.7256ZM103.986 34.6704C101.433 34.709 99.3324 32.669 99.2938 30.1159C99.2552 27.5628 101.295 25.4621 103.848 25.4235C106.401 25.3849 108.502 27.4249 108.541 29.978C108.541 30.0014 108.541 30.0235 108.541 30.0469C108.588 32.5545 106.592 34.6235 104.086 34.6704C104.052 34.6704 104.019 34.6704 103.986 34.6704ZM122.164 32.6373L115.912 22.9201H112.957V37.1932H115.636V27.1656L122.088 37.1932H124.825V22.9201H122.166V32.6373H122.164ZM132.567 28.629C130.785 28.2207 129.36 28.0056 129.36 26.8511C129.36 25.9145 130.023 25.149 131.568 25.149C132.926 25.0814 134.21 25.7656 134.909 26.9311L137.157 25.1711C135.699 23.5683 134.13 22.6897 131.608 22.6897C128.634 22.6897 126.543 24.5656 126.543 26.909C126.543 29.8028 128.93 30.4869 131.058 30.9352C133.033 31.3876 134.403 31.6635 134.403 32.9904C134.403 34.0249 133.601 34.7683 132.057 34.7683C130.354 34.7683 129.087 34.0069 128.146 32.5201L125.741 34.4373C127.088 36.1573 128.966 37.3518 132.037 37.3518C135.109 37.3518 137.277 35.3228 137.277 32.8773C137.277 29.8207 134.752 29.1173 132.566 28.6469V28.629H132.567Z" fill="black"/>
<defs>
<linearGradient id="paint0_linear_4745_283" x1="36.4888" y1="15.196" x2="13.7818" y2="37.0723" gradientUnits="userSpaceOnUse">
<stop offset="0.05" stop-color="#FFF44F"/>
<stop offset="0.37" stop-color="#FF980E"/>
<stop offset="0.53" stop-color="#FF3647"/>
<stop offset="0.7" stop-color="#E31587"/>
</linearGradient>
<radialGradient id="paint1_radial_4745_283" cx="0" cy="0" r="1" gradientUnits="userSpaceOnUse" gradientTransform="translate(36.5502 17.265) scale(28.8722 29.3477)">
<stop offset="0.13" stop-color="#FFBD4F"/>
<stop offset="0.28" stop-color="#FF980E"/>
<stop offset="0.47" stop-color="#FF3750"/>
<stop offset="0.78" stop-color="#EB0878"/>
<stop offset="0.86" stop-color="#E50080"/>
</radialGradient>
<radialGradient id="paint2_radial_4745_283" cx="0" cy="0" r="1" gradientUnits="userSpaceOnUse" gradientTransform="translate(25.6378 26.4775) scale(29.5948 29.3477)">
<stop offset="0.3" stop-color="#960E18"/>
<stop offset="0.35" stop-color="#B11927" stop-opacity="0.74"/>
<stop offset="0.43" stop-color="#DB293D" stop-opacity="0.34"/>
<stop offset="0.5" stop-color="#F5334B" stop-opacity="0.09"/>
<stop offset="0.53" stop-color="#FF3750" stop-opacity="0"/>
</radialGradient>
<radialGradient id="paint3_radial_4745_283" cx="0" cy="0" r="1" gradientUnits="userSpaceOnUse" gradientTransform="translate(28.7433 10.7276) scale(9.48731 16.1014)">
<stop offset="0.13" stop-color="#FFF44F"/>
<stop offset="0.53" stop-color="#FF980E"/>
</radialGradient>
<radialGradient id="paint4_radial_4745_283" cx="0" cy="0" r="1" gradientUnits="userSpaceOnUse" gradientTransform="translate(22.4744 34.2795) scale(12.5373 13.7426)">
<stop offset="0.35" stop-color="#3A8EE6"/>
<stop offset="0.67" stop-color="#9059FF"/>
<stop offset="1" stop-color="#C139E6"/>
</radialGradient>
<radialGradient id="paint5_radial_4745_283" cx="0" cy="0" r="1" gradientUnits="userSpaceOnUse" gradientTransform="translate(25.477 23.6602) scale(6.66819 8.12061)">
<stop offset="0.21" stop-color="#9059FF" stop-opacity="0"/>
<stop offset="0.97" stop-color="#6E008B" stop-opacity="0.6"/>
</radialGradient>
<radialGradient id="paint6_radial_4745_283" cx="0" cy="0" r="1" gradientUnits="userSpaceOnUse" gradientTransform="translate(25.0053 14.0127) scale(9.97385 10.0055)">
<stop offset="0.1" stop-color="#FFE226"/>
<stop offset="0.79" stop-color="#FF7139"/>
</radialGradient>
<radialGradient id="paint7_radial_4745_283" cx="0" cy="0" r="1" gradientUnits="userSpaceOnUse" gradientTransform="translate(34.0891 6.90513) scale(47.6525 40.0037)">
<stop offset="0.11" stop-color="#FFF44F"/>
<stop offset="0.46" stop-color="#FF980E"/>
<stop offset="0.72" stop-color="#FF3647"/>
<stop offset="0.9" stop-color="#E31587"/>
</radialGradient>
<radialGradient id="paint8_radial_4745_283" cx="0" cy="0" r="1" gradientTransform="matrix(3.29227 31.1149 31.3475 -3.26746 29.5881 8.18308)" gradientUnits="userSpaceOnUse">
<stop stop-color="#FFF44F"/>
<stop offset="0.3" stop-color="#FF980E"/>
<stop offset="0.57" stop-color="#FF3647"/>
<stop offset="0.74" stop-color="#E31587"/>
</radialGradient>
<radialGradient id="paint9_radial_4745_283" cx="0" cy="0" r="1" gradientUnits="userSpaceOnUse" gradientTransform="translate(25.1224 17.875) scale(27.3463 26.8337)">
<stop offset="0.14" stop-color="#FFF44F"/>
<stop offset="0.48" stop-color="#FF980E"/>
<stop offset="0.66" stop-color="#FF3647"/>
<stop offset="0.9" stop-color="#E31587"/>
</radialGradient>
<radialGradient id="paint10_radial_4745_283" cx="0" cy="0" r="1" gradientUnits="userSpaceOnUse" gradientTransform="translate(32.208 19.0684) scale(32.8519 29.4184)">
<stop offset="0.09" stop-color="#FFF44F"/>
<stop offset="0.63" stop-color="#FF980E"/>
</radialGradient>
<linearGradient id="paint11_linear_4745_283" x1="35.1005" y1="15.4166" x2="16.9529" y2="35.1281" gradientUnits="userSpaceOnUse">
<stop offset="0.17" stop-color="#FFF44F" stop-opacity="0.8"/>
<stop offset="0.6" stop-color="#FFF44F" stop-opacity="0"/>
</linearGradient>
</defs>
</svg>
