<svg width="157" height="44" viewBox="0 0 157 44" fill="none" xmlns="http://www.w3.org/2000/svg">
<rect x="0.37931" y="0.37931" width="155.517" height="43.2414" rx="2.65517" fill="white"/>
<rect x="0.37931" y="0.37931" width="155.517" height="43.2414" rx="2.65517" stroke="#D9D9D9" stroke-width="0.758621"/>
<path d="M34.3419 18.3708C33.8017 17.072 32.7069 15.6689 31.8487 15.2246C32.4605 16.4093 32.8853 17.6813 33.1074 18.9971L33.1099 19.0177C31.7043 15.5147 29.3216 14.1019 27.3759 11.0261C27.2752 10.8695 27.1781 10.7105 27.0834 10.5503C27.0348 10.4665 26.9887 10.3804 26.9462 10.2942C26.8661 10.1376 26.803 9.97253 26.7605 9.80138C26.7605 9.78561 26.7484 9.77104 26.7326 9.76983C26.7253 9.7674 26.7168 9.7674 26.7095 9.76983C26.7083 9.76983 26.7059 9.77225 26.7035 9.77347C26.7011 9.77468 26.6974 9.77711 26.695 9.77832L26.6998 9.76983C23.578 11.5978 22.5195 14.9806 22.4212 16.6739C21.1747 16.7601 19.9827 17.2189 19.0007 17.9921C18.8988 17.9059 18.7908 17.8246 18.6803 17.7493C18.3975 16.7576 18.3854 15.7089 18.6451 14.7124C17.4993 15.2683 16.4797 16.0548 15.6543 17.0247H15.6483C15.1555 16.4008 15.1907 14.3422 15.2186 13.9113C15.0729 13.9696 14.9333 14.0436 14.8035 14.131C14.3689 14.4417 13.9623 14.7901 13.5884 15.1712C13.1624 15.6021 12.774 16.0694 12.4268 16.5646C11.6282 17.6971 11.0613 18.9777 10.7591 20.3298L10.7421 20.4124C10.696 20.6697 10.6559 20.9294 10.6195 21.188C10.6195 21.1977 10.6171 21.2062 10.6171 21.2147C10.5078 21.7803 10.4411 22.3532 10.4156 22.9273V22.9917C10.4217 29.8557 15.9905 35.4148 22.8545 35.4088C28.8992 35.4039 34.0639 31.05 35.0908 25.0927C35.1114 24.9325 35.1284 24.7735 35.1466 24.6121C35.4027 22.4964 35.126 20.3505 34.3407 18.3695L34.3419 18.3708ZM20.0179 28.0981C20.0762 28.126 20.1308 28.1564 20.1903 28.1831L20.1988 28.1879C20.1381 28.1588 20.0786 28.1284 20.0179 28.0981ZM33.1099 19.0201V19.008L33.1123 19.0214H33.1099V19.0201Z" fill="url(#paint0_linear_4745_283)"/>
<path d="M34.3418 18.3708C33.8017 17.072 32.7069 15.6689 31.8487 15.2246C32.4605 16.4093 32.8853 17.6813 33.1074 18.9971V19.0092L33.1098 19.0226C34.0675 21.7633 33.9291 24.7687 32.7226 27.4099C31.2989 30.4662 27.8505 33.5978 22.454 33.4461C16.6229 33.281 11.4873 28.9538 10.5272 23.2866C10.3524 22.3933 10.5272 21.9393 10.6146 21.2135C10.4944 21.7779 10.4277 22.352 10.4143 22.9286V22.9929C10.4204 29.8569 15.9893 35.4161 22.8533 35.41C28.898 35.4051 34.0627 31.0513 35.0895 25.094C35.1102 24.9337 35.1272 24.7747 35.1454 24.6133C35.4015 22.4977 35.1247 20.3517 34.3394 18.3708H34.3418Z" fill="url(#paint1_radial_4745_283)"/>
<path d="M34.3418 18.3708C33.8017 17.072 32.7069 15.6689 31.8487 15.2246C32.4605 16.4093 32.8853 17.6813 33.1074 18.9971V19.0092L33.1098 19.0226C34.0675 21.7633 33.9291 24.7687 32.7226 27.4099C31.2989 30.4662 27.8505 33.5978 22.454 33.4461C16.6229 33.281 11.4873 28.9538 10.5272 23.2866C10.3524 22.3933 10.5272 21.9393 10.6146 21.2135C10.4944 21.7779 10.4277 22.352 10.4143 22.9286V22.9929C10.4204 29.8569 15.9893 35.4161 22.8533 35.41C28.898 35.4051 34.0627 31.0513 35.0895 25.094C35.1102 24.9337 35.1272 24.7747 35.1454 24.6133C35.4015 22.4977 35.1247 20.3517 34.3394 18.3708H34.3418Z" fill="url(#paint2_radial_4745_283)"/>
<path d="M28.302 20.1441C28.3287 20.1636 28.3542 20.1818 28.3797 20.2012C28.0678 19.6477 27.6793 19.1403 27.2254 18.6961C23.3631 14.8326 26.2131 10.3197 26.6937 10.0903L26.6986 10.083C23.5767 11.911 22.5183 15.2938 22.42 16.9871C22.5644 16.9774 22.7089 16.9652 22.8569 16.9652C25.1122 16.9689 27.1902 18.1839 28.302 20.1454V20.1441Z" fill="url(#paint3_radial_4745_283)"/>
<path d="M22.8654 20.9149C22.8448 21.2244 21.7524 22.2901 21.3713 22.2901C17.8379 22.2901 17.2638 24.4276 17.2638 24.4276C17.4204 26.2276 18.6742 27.7109 20.1915 28.495C20.2606 28.5302 20.3298 28.5642 20.4014 28.5945C20.5228 28.6479 20.6442 28.6977 20.7668 28.7438C21.2875 28.9283 21.8325 29.0327 22.3836 29.0558C28.5776 29.3459 29.7768 21.6492 25.3076 19.4146C26.3624 19.2775 27.4293 19.5372 28.3045 20.1417C27.1926 18.1802 25.1134 16.9664 22.8594 16.9615C22.7113 16.9615 22.5681 16.9737 22.4224 16.9834C21.1758 17.0696 19.9839 17.5284 19.0019 18.3016C19.1913 18.4618 19.4049 18.6766 19.8552 19.1197C20.6988 19.9499 22.8618 20.8105 22.8667 20.9124L22.8654 20.9149Z" fill="url(#paint4_radial_4745_283)"/>
<path d="M22.8654 20.9149C22.8448 21.2244 21.7524 22.2901 21.3713 22.2901C17.8379 22.2901 17.2638 24.4276 17.2638 24.4276C17.4204 26.2276 18.6742 27.7109 20.1915 28.495C20.2606 28.5302 20.3298 28.5642 20.4014 28.5945C20.5228 28.6479 20.6442 28.6977 20.7668 28.7438C21.2875 28.9283 21.8325 29.0327 22.3836 29.0558C28.5776 29.3459 29.7768 21.6492 25.3076 19.4146C26.3624 19.2775 27.4293 19.5372 28.3045 20.1417C27.1926 18.1802 25.1134 16.9664 22.8594 16.9615C22.7113 16.9615 22.5681 16.9737 22.4224 16.9834C21.1758 17.0696 19.9839 17.5284 19.0019 18.3016C19.1913 18.4618 19.4049 18.6766 19.8552 19.1197C20.6988 19.9499 22.8618 20.8105 22.8667 20.9124L22.8654 20.9149Z" fill="url(#paint5_radial_4745_283)"/>
<path d="M18.4205 17.8913C18.5067 17.946 18.5929 18.003 18.6767 18.0613C18.3938 17.0696 18.3817 16.0209 18.6415 15.0244C17.4956 15.5803 16.476 16.3668 15.6507 17.3366C15.7114 17.3354 17.5138 17.3026 18.4205 17.8925V17.8913Z" fill="url(#paint6_radial_4745_283)"/>
<path d="M10.5297 23.2866C11.4886 28.9538 16.6254 33.281 22.4564 33.4461C27.8529 33.599 31.3001 30.4662 32.7251 27.4099C33.9316 24.7686 34.07 21.7633 33.1123 19.0226V19.0104C33.1123 19.0007 33.1099 18.9958 33.1123 18.9983L33.1147 19.0189C33.5553 21.8968 32.0915 24.6861 29.8023 26.5723L29.795 26.5881C25.3355 30.2198 21.0678 28.779 20.2036 28.1915C20.1429 28.1624 20.0835 28.1321 20.0228 28.1017C17.4228 26.8588 16.3486 24.4895 16.5792 22.4588C15.3181 22.477 14.165 21.7512 13.6358 20.6066C15.0232 19.7569 16.7528 19.6865 18.2045 20.4233C19.6756 21.0909 21.3507 21.1576 22.8703 20.6066C22.8655 20.5058 20.7025 19.644 19.8589 18.8138C19.4086 18.3695 19.195 18.1559 19.0056 17.9957C18.9036 17.9095 18.7956 17.8282 18.6852 17.7529C18.6002 17.6959 18.5152 17.6388 18.4291 17.583C17.5224 16.9931 15.7199 17.0259 15.6604 17.0271H15.6543C15.1615 16.4032 15.1967 14.3446 15.2246 13.9137C15.079 13.972 14.9394 14.046 14.8095 14.1334C14.375 14.4441 13.9684 14.7925 13.5945 15.1736C13.1673 15.6033 12.7776 16.0694 12.4281 16.5646C11.6294 17.6971 11.0625 18.9776 10.7603 20.3298C10.7542 20.3553 10.3124 22.2852 10.5309 23.2866H10.5297Z" fill="url(#paint7_radial_4745_283)"/>
<path d="M27.2266 18.6949C27.6806 19.1403 28.069 19.6477 28.3809 20.2024C28.4453 20.2509 28.5072 20.3007 28.5666 20.3553C31.3838 22.9528 29.9079 26.6246 29.7974 26.8855C32.0866 24.9993 33.5493 22.2112 33.1099 19.3321C31.7043 15.8279 29.3216 14.415 27.3759 11.3393C27.2752 11.1827 27.1781 11.0237 27.0834 10.8635C27.0348 10.7797 26.9887 10.6935 26.9462 10.6074C26.8661 10.4508 26.803 10.2857 26.7605 10.1146C26.7605 10.0988 26.7484 10.0842 26.7326 10.083C26.7253 10.0806 26.7168 10.0806 26.7095 10.083C26.7083 10.083 26.7059 10.0854 26.7035 10.0866C26.701 10.0879 26.6974 10.0903 26.695 10.0915C26.2143 10.3197 23.3643 14.8326 27.2278 18.6961L27.2266 18.6949Z" fill="url(#paint8_radial_4745_283)"/>
<path d="M28.5642 20.3529C28.5047 20.2995 28.4428 20.2485 28.3785 20.2C28.353 20.1805 28.3287 20.1623 28.3008 20.1429C27.4269 19.5372 26.3587 19.2787 25.3039 19.4159C29.7743 21.6505 28.5751 29.3471 22.3799 29.057C21.8289 29.034 21.2839 28.9296 20.7631 28.7451C20.6418 28.6989 20.5204 28.6492 20.3978 28.5958C20.3274 28.5642 20.257 28.5302 20.1878 28.4962L20.1963 28.5011C21.0605 29.091 25.327 30.5318 29.7877 26.8977L29.795 26.8819C29.9066 26.6221 31.3826 22.9492 28.5642 20.3541V20.3529Z" fill="url(#paint9_radial_4745_283)"/>
<path d="M17.2638 24.4288C17.2638 24.4288 17.8379 22.2913 21.3713 22.2913C21.7536 22.2913 22.846 21.2256 22.8655 20.9161C21.3458 21.4671 19.6708 21.4004 18.1996 20.7328C16.7479 19.996 15.0183 20.0664 13.6309 20.9161C14.1601 22.0607 15.3132 22.7865 16.5744 22.7683C16.3437 24.8002 17.418 27.1695 20.0179 28.4112C20.0762 28.4392 20.1308 28.4695 20.1903 28.4962C18.673 27.7121 17.4192 26.23 17.2626 24.43L17.2638 24.4288Z" fill="url(#paint10_radial_4745_283)"/>
<path d="M34.3418 18.3708C33.8017 17.072 32.7069 15.6689 31.8487 15.2246C32.4605 16.4093 32.8853 17.6813 33.1074 18.9971L33.1098 19.0177C31.7043 15.5147 29.3216 14.1019 27.3759 11.0261C27.2751 10.8695 27.178 10.7105 27.0834 10.5503C27.0348 10.4665 26.9887 10.3804 26.9462 10.2942C26.8661 10.1376 26.803 9.97253 26.7605 9.80138C26.7605 9.78561 26.7484 9.77104 26.7326 9.76983C26.7253 9.7674 26.7168 9.7674 26.7095 9.76983C26.7083 9.76983 26.7059 9.77225 26.7034 9.77347C26.701 9.77468 26.6974 9.77711 26.6949 9.77832L26.6998 9.76983C23.5779 11.5978 22.5195 14.9806 22.4212 16.6739C22.5656 16.6642 22.7101 16.652 22.8581 16.652C25.1134 16.6557 27.1914 17.8707 28.3032 19.8322C27.4293 19.2265 26.3612 18.968 25.3064 19.1051C29.7768 21.3397 28.5775 29.0364 22.3823 28.7463C21.8313 28.7232 21.2863 28.6188 20.7656 28.4343C20.6442 28.3882 20.5228 28.3384 20.4002 28.285C20.3298 28.2535 20.2594 28.2195 20.1902 28.1855L20.1987 28.1904C20.138 28.1612 20.0786 28.1309 20.0179 28.1005C20.0761 28.1284 20.1307 28.1588 20.1902 28.1855C18.673 27.4014 17.4191 25.9181 17.2626 24.1181C17.2626 24.1181 17.8367 21.9806 21.37 21.9806C21.7524 21.9806 22.8448 20.9149 22.8642 20.6054C22.8594 20.5046 20.6964 19.6428 19.8528 18.8126C19.4025 18.3683 19.1888 18.1547 18.9995 17.9945C18.8975 17.9083 18.7895 17.827 18.6791 17.7517C18.3962 16.7601 18.3841 15.7113 18.6439 14.7148C17.498 15.2707 16.4784 16.0573 15.6531 17.0271H15.647C15.1542 16.4032 15.1894 14.3446 15.2173 13.9137C15.0717 13.972 14.9321 14.046 14.8022 14.1334C14.3677 14.4441 13.961 14.7925 13.5872 15.1736C13.1612 15.6045 12.7727 16.0718 12.4256 16.5671C11.6269 17.6995 11.0601 18.9801 10.7578 20.3323L10.7408 20.4148C10.7178 20.524 10.6122 21.08 10.5976 21.1989C10.5976 21.2074 10.5976 21.1892 10.5976 21.1989C10.5017 21.7718 10.441 22.3508 10.4143 22.931V22.9953C10.4204 29.8593 15.9893 35.4185 22.8533 35.4124C28.898 35.4076 34.0627 31.0537 35.0895 25.0964C35.1102 24.9362 35.1272 24.7772 35.1454 24.6157C35.4015 22.5001 35.1247 20.3541 34.3394 18.3732L34.3418 18.3708Z" fill="url(#paint11_linear_4745_283)"/>
<path d="M41.1245 12.2909H44.5741V13.2267H42.1113V14.4903H44.5741V15.4164H42.1113V17.4617H41.1233V12.2897L41.1245 12.2909ZM45.7479 11.9316C46.0537 11.9219 46.3098 12.1635 46.3196 12.4693C46.3196 12.4839 46.3196 12.4972 46.3196 12.5118C46.2953 12.8298 46.0185 13.0677 45.7005 13.0447C45.4153 13.0228 45.1895 12.7971 45.1677 12.5118C45.164 12.195 45.4177 11.9353 45.7357 11.9316C45.7406 11.9316 45.7442 11.9316 45.7491 11.9316H45.7479ZM45.2708 13.6346H46.2334V17.4629H45.2708V13.6346ZM49.0737 14.6954C48.9389 14.5886 48.7714 14.5279 48.5991 14.5255C48.2046 14.5255 47.9776 14.7816 47.9776 15.3399V17.4629H47.0151V13.6346H47.9412V14.1856C48.0868 13.8239 48.4461 13.5945 48.8358 13.6151C49.0639 13.6151 49.2873 13.6855 49.4766 13.8142L49.0724 14.6954H49.0737ZM49.4779 15.5645C49.4475 14.4867 50.2972 13.5884 51.375 13.5581C51.3981 13.5581 51.4199 13.5581 51.443 13.5581C52.482 13.5144 53.3583 14.3216 53.402 15.3606C53.4045 15.4079 53.4045 15.4565 53.402 15.505V15.9056H50.4295C50.529 16.4008 50.9805 16.7443 51.4843 16.7067C51.8884 16.7249 52.2659 16.5015 52.4468 16.1386L53.2612 16.6266C52.8704 17.2274 52.1883 17.5745 51.4721 17.5345C50.4477 17.6158 49.5519 16.8523 49.4706 15.8279C49.4633 15.7405 49.4633 15.6531 49.4681 15.5657H49.4779V15.5645ZM50.4392 15.1348H52.4468C52.346 14.6639 51.9115 14.3398 51.4308 14.3786C50.9611 14.3604 50.5436 14.6772 50.4367 15.1348H50.4404H50.4392ZM53.646 13.6346H54.3294V13.4452C54.3294 12.4062 54.7688 11.9729 55.7301 11.9729H56.07V12.8165H55.7944C55.3429 12.8165 55.2434 12.9706 55.2434 13.4574V13.6467H56.0712V14.5121H55.2664V17.4617H54.3306V14.5121H53.6472V13.6334L53.646 13.6346ZM56.2532 15.5584C56.235 14.4782 57.0968 13.5884 58.1759 13.5702C58.2002 13.5702 58.2232 13.5702 58.2475 13.5702C59.346 13.5702 60.2357 14.4599 60.2357 15.5584C60.2357 16.6569 59.346 17.5466 58.2475 17.5466C57.1854 17.594 56.2872 16.771 56.2399 15.7102C56.2375 15.6531 56.2375 15.5961 56.2399 15.5402L56.2532 15.5596V15.5584ZM59.2962 15.5584C59.3278 14.9807 58.886 14.4854 58.307 14.4539C57.7292 14.4223 57.234 14.8641 57.2024 15.4431C57.2 15.482 57.2 15.5208 57.2024 15.5596C57.1709 16.1374 57.6127 16.6326 58.1917 16.6642C58.7694 16.6958 59.2647 16.2539 59.2962 15.675C59.2986 15.6361 59.2986 15.5973 59.2962 15.5584ZM61.5563 15.5159L60.1774 13.6467H61.3026L62.1171 14.8241L62.951 13.6467H64.0761L62.6754 15.5062L64.1538 17.4617H63.0153L62.1013 16.2175L61.2201 17.4617H60.0815L61.5563 15.5147V15.5159ZM69.7967 14.7889C70.2276 14.5862 70.4971 14.1468 70.4825 13.6698C70.4825 12.8335 69.8417 12.2945 68.8791 12.2945H66.6664V17.4629H68.9495C69.9121 17.4629 70.5845 16.9082 70.5845 16.0039C70.6088 15.4723 70.292 14.9831 69.7955 14.7889H69.7967ZM67.2599 12.8323H68.8633C69.5042 12.8323 69.8829 13.1721 69.8829 13.6686C69.8829 14.165 69.5431 14.5316 68.9204 14.5316H67.2563L67.2599 12.8323ZM68.9434 16.9203H67.2599V15.0766H68.918C69.6232 15.0766 69.9922 15.4516 69.9922 16.0003C69.9922 16.5489 69.5819 16.9203 68.9434 16.9203ZM71.8493 14.3556V13.6406H71.2909V17.4629H71.8651V15.3691C71.8651 14.5255 72.2304 14.1565 72.8689 14.1565C73.0339 14.1504 73.1966 14.1929 73.3374 14.2779L73.5777 13.7268C73.3811 13.6212 73.159 13.5715 72.9368 13.5824C72.4355 13.5508 71.9816 13.8773 71.8493 14.3616V14.3556ZM75.5878 13.5569C74.5038 13.546 73.6165 14.4163 73.6056 15.5002C73.6056 15.5147 73.6056 15.5305 73.6056 15.5451C73.5826 16.6217 74.4359 17.5126 75.5125 17.5357C75.5368 17.5357 75.5623 17.5357 75.5865 17.5357C76.685 17.5794 77.6124 16.7249 77.6561 15.6264C77.6998 14.5279 76.8452 13.6006 75.7468 13.5569C75.6934 13.5545 75.6399 13.5545 75.5865 13.5569H75.5878ZM75.5878 16.9846C74.8231 16.9907 74.198 16.3753 74.1919 15.6106C74.1919 15.5863 74.1919 15.5621 74.1931 15.539C74.1567 14.7658 74.7527 14.1092 75.5258 14.0727C76.299 14.0363 76.9557 14.6323 76.9921 15.4055C76.9945 15.4504 76.9945 15.4953 76.9921 15.539C77.0237 16.3086 76.4265 16.9579 75.6557 16.9907C75.6327 16.9907 75.6096 16.9919 75.5878 16.9907V16.9846ZM82.2381 16.6448L81.0996 13.6334H80.5607L79.3906 16.663L78.428 13.6334H77.8187L79.0726 17.4617H79.6406L80.8143 14.4284L81.9917 17.4617H82.5149L83.8428 13.6358H83.2395L82.2393 16.6436L82.2381 16.6448ZM85.8868 15.2501C85.2908 15.1287 84.832 15.0511 84.832 14.6542C84.832 14.2572 85.0723 14.0448 85.6598 14.0448C86.0773 14.0339 86.4706 14.2342 86.7085 14.5777L87.1892 14.2572C86.825 13.7948 86.2606 13.535 85.6719 13.5581C84.7677 13.5581 84.2482 14.074 84.2482 14.6675C84.2482 15.4334 84.9509 15.6106 85.6076 15.7381C86.1684 15.8497 86.6915 15.9371 86.6915 16.3595C86.6915 16.7819 86.3711 17.0259 85.7873 17.0259C85.2945 17.0465 84.8271 16.8099 84.5528 16.4008L84.0491 16.7407C84.4448 17.2881 85.0966 17.5915 85.7715 17.5418C86.7716 17.5418 87.2814 16.9555 87.2814 16.3523C87.2754 15.5669 86.5435 15.3812 85.8868 15.2562V15.2501ZM89.7345 13.5569C88.6506 13.5387 87.7585 14.4029 87.7402 15.4868C87.7402 15.5111 87.7402 15.5366 87.7402 15.5609C87.7111 16.6229 88.5474 17.5078 89.6095 17.5381C89.658 17.5393 89.7078 17.5381 89.7564 17.5369C90.481 17.5697 91.1644 17.1995 91.5321 16.5744L91.0381 16.2855C90.7917 16.7613 90.2904 17.049 89.7551 17.0235C89.0147 17.0635 88.3751 16.5137 88.3022 15.7757H91.6814V15.5123C91.7154 14.4697 90.8985 13.5969 89.8559 13.563C89.8158 13.5617 89.7758 13.5617 89.7357 13.563L89.7321 13.5569H89.7345ZM88.3204 15.2562C88.437 14.568 89.0366 14.0667 89.7345 14.0727C90.4324 14.0327 91.0345 14.5583 91.0879 15.2562H88.3204ZM94.0277 13.5763C93.5252 13.5435 93.0688 13.8688 92.9377 14.3556V13.6406H92.3769V17.4629H92.9511V15.3691C92.9511 14.5255 93.3201 14.1565 93.9573 14.1565C94.1224 14.1504 94.285 14.1929 94.4258 14.2779L94.6661 13.7268C94.4707 13.6236 94.2522 13.5739 94.0313 13.5824L94.0277 13.5763ZM45.2708 20.1684L40.5322 32.7287H43.0265L43.8543 30.4395H49.1004L49.9282 32.7287H52.4225L47.6742 20.1684H45.2721H45.2708ZM44.6615 28.2401L46.4859 23.2515L48.2908 28.2401H44.6615ZM57.41 20.1684H53.3511V32.7287H57.4549C61.2031 32.7287 63.9572 30.0293 63.9572 26.451C63.9572 22.8727 61.3985 20.1696 57.41 20.1696V20.1684ZM57.308 30.459H55.7908V22.4236H57.2364C59.9881 22.4236 61.5041 24.146 61.5041 26.451C61.5041 28.756 59.8534 30.459 57.3068 30.459H57.308ZM69.4921 20.1684H65.4259V32.7287H69.537C73.2888 32.7287 76.0526 30.0293 76.0526 26.4413C76.0526 22.8533 73.4879 20.1696 69.486 20.1696H69.4921V20.1684ZM69.3901 30.459H67.8765V22.4236H69.3197C72.0738 22.4236 73.5874 24.146 73.5874 26.451C73.5814 28.705 71.9294 30.459 69.3841 30.459H69.3901ZM77.4764 27.473H83.8415V25.4241H77.4703L77.4764 27.473ZM91.5079 19.9985C87.9454 19.9973 85.0553 22.8837 85.0529 26.4462C85.0517 30.0086 87.9381 32.8987 91.5006 32.9011C95.0631 32.9023 97.9531 30.0159 97.9555 26.4534C97.9555 26.4486 97.9555 26.4449 97.9555 26.4401C97.9713 22.8982 95.1128 20.0143 91.5722 19.9985C91.5503 19.9985 91.5297 19.9985 91.5079 19.9985ZM91.5079 30.5099C89.2611 30.5439 87.4125 28.7487 87.3785 26.502C87.3446 24.2553 89.1398 22.4067 91.3865 22.3727C93.6332 22.3387 95.4818 24.1339 95.5158 26.3806C95.5158 26.4012 95.5158 26.4207 95.5158 26.4413C95.5571 28.648 93.8007 30.4687 91.5953 30.5099C91.5661 30.5099 91.537 30.5099 91.5079 30.5099ZM107.504 28.7208L102.002 20.1696H99.4024V32.73H101.76V23.9057L107.438 32.73H109.846V20.1696H107.506V28.7208H107.504ZM116.659 25.1935C115.091 24.8342 113.837 24.6449 113.837 23.6289C113.837 22.8048 114.421 22.1311 115.78 22.1311C116.974 22.0716 118.104 22.6737 118.72 23.6993L120.698 22.1505C119.415 20.7401 118.034 19.9669 115.815 19.9669C113.198 19.9669 111.358 21.6177 111.358 23.6799C111.358 26.2265 113.458 26.8285 115.331 27.223C117.069 27.6211 118.274 27.8639 118.274 29.0315C118.274 29.9419 117.569 30.5961 116.21 30.5961C114.712 30.5961 113.596 29.9261 112.769 28.6176L110.652 30.3048C111.838 31.8184 113.49 32.8695 116.193 32.8695C118.896 32.8695 120.804 31.0841 120.804 28.932C120.804 26.2422 118.582 25.6232 116.658 25.2093V25.1935H116.659Z" fill="black"/>
<defs>
<linearGradient id="paint0_linear_4745_283" x1="32.1101" y1="13.3725" x2="12.128" y2="32.6236" gradientUnits="userSpaceOnUse">
<stop offset="0.05" stop-color="#FFF44F"/>
<stop offset="0.37" stop-color="#FF980E"/>
<stop offset="0.53" stop-color="#FF3647"/>
<stop offset="0.7" stop-color="#E31587"/>
</linearGradient>
<radialGradient id="paint1_radial_4745_283" cx="0" cy="0" r="1" gradientUnits="userSpaceOnUse" gradientTransform="translate(32.1642 15.1932) scale(25.4075 25.826)">
<stop offset="0.13" stop-color="#FFBD4F"/>
<stop offset="0.28" stop-color="#FF980E"/>
<stop offset="0.47" stop-color="#FF3750"/>
<stop offset="0.78" stop-color="#EB0878"/>
<stop offset="0.86" stop-color="#E50080"/>
</radialGradient>
<radialGradient id="paint2_radial_4745_283" cx="0" cy="0" r="1" gradientUnits="userSpaceOnUse" gradientTransform="translate(22.5612 23.3002) scale(26.0434 25.826)">
<stop offset="0.3" stop-color="#960E18"/>
<stop offset="0.35" stop-color="#B11927" stop-opacity="0.74"/>
<stop offset="0.43" stop-color="#DB293D" stop-opacity="0.34"/>
<stop offset="0.5" stop-color="#F5334B" stop-opacity="0.09"/>
<stop offset="0.53" stop-color="#FF3750" stop-opacity="0"/>
</radialGradient>
<radialGradient id="paint3_radial_4745_283" cx="0" cy="0" r="1" gradientUnits="userSpaceOnUse" gradientTransform="translate(25.2941 9.4403) scale(8.34883 14.1692)">
<stop offset="0.13" stop-color="#FFF44F"/>
<stop offset="0.53" stop-color="#FF980E"/>
</radialGradient>
<radialGradient id="paint4_radial_4745_283" cx="0" cy="0" r="1" gradientUnits="userSpaceOnUse" gradientTransform="translate(19.7774 30.166) scale(11.0328 12.0935)">
<stop offset="0.35" stop-color="#3A8EE6"/>
<stop offset="0.67" stop-color="#9059FF"/>
<stop offset="1" stop-color="#C139E6"/>
</radialGradient>
<radialGradient id="paint5_radial_4745_283" cx="0" cy="0" r="1" gradientUnits="userSpaceOnUse" gradientTransform="translate(22.4198 20.821) scale(5.86801 7.14613)">
<stop offset="0.21" stop-color="#9059FF" stop-opacity="0"/>
<stop offset="0.97" stop-color="#6E008B" stop-opacity="0.6"/>
</radialGradient>
<radialGradient id="paint6_radial_4745_283" cx="0" cy="0" r="1" gradientUnits="userSpaceOnUse" gradientTransform="translate(22.0047 12.3312) scale(8.77699 8.80488)">
<stop offset="0.1" stop-color="#FFE226"/>
<stop offset="0.79" stop-color="#FF7139"/>
</radialGradient>
<radialGradient id="paint7_radial_4745_283" cx="0" cy="0" r="1" gradientUnits="userSpaceOnUse" gradientTransform="translate(29.9984 6.0765) scale(41.9342 35.2033)">
<stop offset="0.11" stop-color="#FFF44F"/>
<stop offset="0.46" stop-color="#FF980E"/>
<stop offset="0.72" stop-color="#FF3647"/>
<stop offset="0.9" stop-color="#E31587"/>
</radialGradient>
<radialGradient id="paint8_radial_4745_283" cx="0" cy="0" r="1" gradientTransform="matrix(2.8972 27.3811 27.5858 -2.87536 26.0376 7.20112)" gradientUnits="userSpaceOnUse">
<stop stop-color="#FFF44F"/>
<stop offset="0.3" stop-color="#FF980E"/>
<stop offset="0.57" stop-color="#FF3647"/>
<stop offset="0.74" stop-color="#E31587"/>
</radialGradient>
<radialGradient id="paint9_radial_4745_283" cx="0" cy="0" r="1" gradientUnits="userSpaceOnUse" gradientTransform="translate(22.1077 15.7301) scale(24.0648 23.6136)">
<stop offset="0.14" stop-color="#FFF44F"/>
<stop offset="0.48" stop-color="#FF980E"/>
<stop offset="0.66" stop-color="#FF3647"/>
<stop offset="0.9" stop-color="#E31587"/>
</radialGradient>
<radialGradient id="paint10_radial_4745_283" cx="0" cy="0" r="1" gradientUnits="userSpaceOnUse" gradientTransform="translate(28.3431 16.7802) scale(28.9096 25.8882)">
<stop offset="0.09" stop-color="#FFF44F"/>
<stop offset="0.63" stop-color="#FF980E"/>
</radialGradient>
<linearGradient id="paint11_linear_4745_283" x1="30.8885" y1="13.5667" x2="14.9186" y2="30.9128" gradientUnits="userSpaceOnUse">
<stop offset="0.17" stop-color="#FFF44F" stop-opacity="0.8"/>
<stop offset="0.6" stop-color="#FFF44F" stop-opacity="0"/>
</linearGradient>
</defs>
</svg>
