<svg width="156" height="44" viewBox="0 0 156 44" fill="none" xmlns="http://www.w3.org/2000/svg">
<rect x="0.5" y="0.5" width="205" height="57" rx="3.5" fill="white"/>
<rect x="0.5" y="0.5" width="205" height="57" rx="3.5" stroke="#D9D9D9"/>
<path d="M45.2688 24.216C44.5568 22.504 43.1136 20.6544 41.9824 20.0688C42.7888 21.6304 43.3488 23.3072 43.6416 25.0416L43.6448 25.0688C41.792 20.4512 38.6512 18.5888 36.0864 14.5344C35.9536 14.328 35.8256 14.1184 35.7008 13.9072C35.6368 13.7968 35.576 13.6832 35.52 13.5696C35.4144 13.3632 35.3312 13.1456 35.2752 12.92C35.2752 12.8992 35.2592 12.88 35.2384 12.8784C35.2288 12.8752 35.2176 12.8752 35.208 12.8784C35.2064 12.8784 35.2032 12.8816 35.2 12.8832C35.1968 12.8848 35.192 12.888 35.1888 12.8896L35.1952 12.8784C31.08 15.288 29.6848 19.7472 29.5552 21.9792C27.912 22.0928 26.3408 22.6976 25.0464 23.7168C24.912 23.6032 24.7696 23.496 24.624 23.3968C24.2512 22.0896 24.2352 20.7072 24.5776 19.3936C23.0672 20.1264 21.7232 21.1632 20.6352 22.4416H20.6272C19.9776 21.6192 20.024 18.9056 20.0608 18.3376C19.8688 18.4144 19.6848 18.512 19.5136 18.6272C18.9408 19.0368 18.4048 19.496 17.912 19.9984C17.3504 20.5664 16.8384 21.1824 16.3808 21.8352C15.328 23.328 14.5808 25.016 14.1824 26.7984L14.16 26.9072C14.0992 27.2464 14.0464 27.5888 13.9984 27.9296C13.9984 27.9424 13.9952 27.9536 13.9952 27.9648C13.8512 28.7104 13.7632 29.4656 13.7296 30.2224V30.3072C13.7376 39.3552 21.0784 46.6832 30.1264 46.6752C38.0944 46.6688 44.9024 40.9296 46.256 33.0768C46.2832 32.8656 46.3056 32.656 46.3296 32.4432C46.6672 29.6544 46.3024 26.8256 45.2672 24.2144L45.2688 24.216ZM26.3872 37.0384C26.464 37.0752 26.536 37.1152 26.6144 37.1504L26.6256 37.1568C26.5456 37.1184 26.4672 37.0784 26.3872 37.0384ZM43.6448 25.072V25.056L43.648 25.0736H43.6448V25.072Z" fill="url(#paint0_linear_4745_283)"/>
<path d="M45.2688 24.216C44.5568 22.504 43.1136 20.6544 41.9824 20.0688C42.7888 21.6304 43.3488 23.3072 43.6416 25.0416V25.0576L43.6448 25.0752C44.9072 28.688 44.7248 32.6496 43.1344 36.1312C41.2576 40.16 36.712 44.288 29.5984 44.088C21.912 43.8704 15.1424 38.1664 13.8768 30.696C13.6464 29.5184 13.8768 28.92 13.992 27.9632C13.8336 28.7072 13.7456 29.464 13.728 30.224V30.3088C13.736 39.3568 21.0768 46.6848 30.1248 46.6768C38.0928 46.6704 44.9008 40.9312 46.2544 33.0784C46.2816 32.8672 46.304 32.6576 46.328 32.4448C46.6656 29.656 46.3008 26.8272 45.2656 24.216H45.2688Z" fill="url(#paint1_radial_4745_283)"/>
<path d="M45.2688 24.216C44.5568 22.504 43.1136 20.6544 41.9824 20.0688C42.7888 21.6304 43.3488 23.3072 43.6416 25.0416V25.0576L43.6448 25.0752C44.9072 28.688 44.7248 32.6496 43.1344 36.1312C41.2576 40.16 36.712 44.288 29.5984 44.088C21.912 43.8704 15.1424 38.1664 13.8768 30.696C13.6464 29.5184 13.8768 28.92 13.992 27.9632C13.8336 28.7072 13.7456 29.464 13.728 30.224V30.3088C13.736 39.3568 21.0768 46.6848 30.1248 46.6768C38.0928 46.6704 44.9008 40.9312 46.2544 33.0784C46.2816 32.8672 46.304 32.6576 46.328 32.4448C46.6656 29.656 46.3008 26.8272 45.2656 24.216H45.2688Z" fill="url(#paint2_radial_4745_283)"/>
<path d="M37.3072 26.5536C37.3424 26.5792 37.376 26.6032 37.4096 26.6288C36.9984 25.8992 36.4864 25.2304 35.888 24.6448C30.7968 19.552 34.5536 13.6032 35.1872 13.3008L35.1936 13.2912C31.0784 15.7008 29.6832 20.16 29.5536 22.392C29.744 22.3792 29.9344 22.3632 30.1296 22.3632C33.1024 22.368 35.8416 23.9696 37.3072 26.5552V26.5536Z" fill="url(#paint3_radial_4745_283)"/>
<path d="M30.1408 27.5696C30.1136 27.9776 28.6736 29.3824 28.1712 29.3824C23.5136 29.3824 22.7568 32.2 22.7568 32.2C22.9632 34.5728 24.616 36.528 26.616 37.5616C26.7072 37.608 26.7984 37.6528 26.8928 37.6928C27.0528 37.7632 27.2128 37.8288 27.3744 37.8896C28.0608 38.1328 28.7792 38.2704 29.5056 38.3008C37.6704 38.6832 39.2512 28.5376 33.36 25.592C34.7504 25.4112 36.1568 25.7536 37.3104 26.5504C35.8448 23.9648 33.104 22.3648 30.1328 22.3584C29.9376 22.3584 29.7488 22.3744 29.5568 22.3872C27.9136 22.5008 26.3424 23.1056 25.048 24.1248C25.2976 24.336 25.5792 24.6192 26.1728 25.2032C27.2848 26.2976 30.136 27.432 30.1424 27.5664L30.1408 27.5696Z" fill="url(#paint4_radial_4745_283)"/>
<path d="M30.1408 27.5696C30.1136 27.9776 28.6736 29.3824 28.1712 29.3824C23.5136 29.3824 22.7568 32.2 22.7568 32.2C22.9632 34.5728 24.616 36.528 26.616 37.5616C26.7072 37.608 26.7984 37.6528 26.8928 37.6928C27.0528 37.7632 27.2128 37.8288 27.3744 37.8896C28.0608 38.1328 28.7792 38.2704 29.5056 38.3008C37.6704 38.6832 39.2512 28.5376 33.36 25.592C34.7504 25.4112 36.1568 25.7536 37.3104 26.5504C35.8448 23.9648 33.104 22.3648 30.1328 22.3584C29.9376 22.3584 29.7488 22.3744 29.5568 22.3872C27.9136 22.5008 26.3424 23.1056 25.048 24.1248C25.2976 24.336 25.5792 24.6192 26.1728 25.2032C27.2848 26.2976 30.136 27.432 30.1424 27.5664L30.1408 27.5696Z" fill="url(#paint5_radial_4745_283)"/>
<path d="M24.2816 23.584C24.3952 23.656 24.5088 23.7312 24.6192 23.808C24.2464 22.5008 24.2304 21.1184 24.5728 19.8048C23.0624 20.5376 21.7184 21.5744 20.6304 22.8528C20.7104 22.8512 23.0864 22.808 24.2816 23.5856V23.584Z" fill="url(#paint6_radial_4745_283)"/>
<path d="M13.88 30.696C15.144 38.1664 21.9152 43.8704 29.6016 44.088C36.7152 44.2896 41.2592 40.16 43.1376 36.1312C44.728 32.6496 44.9104 28.688 43.648 25.0752V25.0592C43.648 25.0464 43.6448 25.04 43.648 25.0432L43.6512 25.0704C44.232 28.864 42.3024 32.5408 39.2848 35.0272L39.2752 35.048C33.3968 39.8352 27.7712 37.936 26.632 37.1616C26.552 37.1232 26.4736 37.0832 26.3936 37.0432C22.9664 35.4048 21.5504 32.2816 21.8544 29.6048C20.192 29.6288 18.672 28.672 17.9744 27.1632C19.8032 26.0432 22.0832 25.9504 23.9968 26.9216C25.936 27.8016 28.144 27.8896 30.1472 27.1632C30.1408 27.0304 27.2896 25.8944 26.1776 24.8C25.584 24.2144 25.3024 23.9328 25.0528 23.7216C24.9184 23.608 24.776 23.5008 24.6304 23.4016C24.5184 23.3264 24.4064 23.2512 24.2928 23.1776C23.0976 22.4 20.7216 22.4432 20.6432 22.4448H20.6352C19.9856 21.6224 20.032 18.9088 20.0688 18.3408C19.8768 18.4176 19.6928 18.5152 19.5216 18.6304C18.9488 19.04 18.4128 19.4992 17.92 20.0016C17.3568 20.568 16.8432 21.1824 16.3824 21.8352C15.3296 23.328 14.5824 25.016 14.184 26.7984C14.176 26.832 13.5936 29.376 13.8816 30.696H13.88Z" fill="url(#paint7_radial_4745_283)"/>
<path d="M35.8896 24.6432C36.488 25.2304 37 25.8992 37.4112 26.6304C37.496 26.6944 37.5776 26.76 37.656 26.832C41.3696 30.256 39.424 35.096 39.2784 35.44C42.296 32.9536 44.224 29.2784 43.6448 25.4832C41.792 20.864 38.6512 19.0016 36.0864 14.9472C35.9536 14.7408 35.8256 14.5312 35.7008 14.32C35.6368 14.2096 35.576 14.096 35.52 13.9824C35.4144 13.776 35.3312 13.5584 35.2752 13.3328C35.2752 13.312 35.2592 13.2928 35.2384 13.2912C35.2288 13.288 35.2176 13.288 35.208 13.2912C35.2064 13.2912 35.2032 13.2944 35.2 13.296C35.1968 13.2976 35.192 13.3008 35.1888 13.3024C34.5552 13.6032 30.7984 19.552 35.8912 24.6448L35.8896 24.6432Z" fill="url(#paint8_radial_4745_283)"/>
<path d="M37.6528 26.8288C37.5744 26.7584 37.4928 26.6912 37.408 26.6272C37.3744 26.6016 37.3424 26.5776 37.3056 26.552C36.1536 25.7536 34.7456 25.4128 33.3552 25.5936C39.248 28.5392 37.6672 38.6848 29.5008 38.3024C28.7744 38.272 28.056 38.1344 27.3696 37.8912C27.2096 37.8304 27.0496 37.7648 26.888 37.6944C26.7952 37.6528 26.7024 37.608 26.6112 37.5632L26.6224 37.5696C27.7616 38.3472 33.3856 40.2464 39.2656 35.456L39.2752 35.4352C39.4224 35.0928 41.368 30.2512 37.6528 26.8304V26.8288Z" fill="url(#paint9_radial_4745_283)"/>
<path d="M22.7568 32.2016C22.7568 32.2016 23.5136 29.384 28.1712 29.384C28.6752 29.384 30.1152 27.9792 30.1408 27.5712C28.1376 28.2976 25.9296 28.2096 23.9904 27.3296C22.0768 26.3584 19.7968 26.4512 17.968 27.5712C18.6656 29.08 20.1856 30.0368 21.848 30.0128C21.544 32.6912 22.96 35.8144 26.3872 37.4512C26.464 37.488 26.536 37.528 26.6144 37.5632C24.6144 36.5296 22.9616 34.576 22.7552 32.2032L22.7568 32.2016Z" fill="url(#paint10_radial_4745_283)"/>
<path d="M45.2688 24.216C44.5568 22.504 43.1136 20.6544 41.9824 20.0688C42.7888 21.6304 43.3488 23.3072 43.6416 25.0416L43.6448 25.0688C41.792 20.4512 38.6512 18.5888 36.0864 14.5344C35.9536 14.328 35.8256 14.1184 35.7008 13.9072C35.6368 13.7968 35.576 13.6832 35.52 13.5696C35.4144 13.3632 35.3312 13.1456 35.2752 12.92C35.2752 12.8992 35.2592 12.88 35.2384 12.8784C35.2288 12.8752 35.2176 12.8752 35.208 12.8784C35.2064 12.8784 35.2032 12.8816 35.2 12.8832C35.1968 12.8848 35.192 12.888 35.1888 12.8896L35.1952 12.8784C31.08 15.288 29.6848 19.7472 29.5552 21.9792C29.7456 21.9664 29.936 21.9504 30.1312 21.9504C33.104 21.9552 35.8432 23.5568 37.3088 26.1424C36.1568 25.344 34.7488 25.0032 33.3584 25.184C39.2512 28.1296 37.6704 38.2752 29.504 37.8928C28.7776 37.8624 28.0592 37.7248 27.3728 37.4816C27.2128 37.4208 27.0528 37.3552 26.8912 37.2848C26.7984 37.2432 26.7056 37.1984 26.6144 37.1536L26.6256 37.16C26.5456 37.1216 26.4672 37.0816 26.3872 37.0416C26.464 37.0784 26.536 37.1184 26.6144 37.1536C24.6144 36.12 22.9616 34.1648 22.7552 31.792C22.7552 31.792 23.512 28.9744 28.1696 28.9744C28.6736 28.9744 30.1136 27.5696 30.1392 27.1616C30.1328 27.0288 27.2816 25.8928 26.1696 24.7984C25.576 24.2128 25.2944 23.9312 25.0448 23.72C24.9104 23.6064 24.768 23.4992 24.6224 23.4C24.2496 22.0928 24.2336 20.7104 24.576 19.3968C23.0656 20.1296 21.7216 21.1664 20.6336 22.4448H20.6256C19.976 21.6224 20.0224 18.9088 20.0592 18.3408C19.8672 18.4176 19.6832 18.5152 19.512 18.6304C18.9392 19.04 18.4032 19.4992 17.9104 20.0016C17.3488 20.5696 16.8368 21.1856 16.3792 21.8384C15.3264 23.3312 14.5792 25.0192 14.1808 26.8016L14.1584 26.9104C14.128 27.0544 13.9888 27.7872 13.9696 27.944C13.9696 27.9552 13.9696 27.9312 13.9696 27.944C13.8432 28.6992 13.7632 29.4624 13.728 30.2272V30.312C13.736 39.36 21.0768 46.688 30.1248 46.68C38.0928 46.6736 44.9008 40.9344 46.2544 33.0816C46.2816 32.8704 46.304 32.6608 46.328 32.448C46.6656 29.6592 46.3008 26.8304 45.2656 24.2192L45.2688 24.216Z" fill="url(#paint11_linear_4745_283)"/>
<path d="M54.2096 16.2016H58.7568V17.4352H55.5104V19.1008H58.7568V20.3216H55.5104V23.0176H54.208V16.2L54.2096 16.2016ZM60.304 15.728C60.7072 15.7152 61.0448 16.0336 61.0576 16.4368C61.0576 16.456 61.0576 16.4736 61.0576 16.4928C61.0256 16.912 60.6608 17.2256 60.2416 17.1952C59.8656 17.1664 59.568 16.8688 59.5392 16.4928C59.5344 16.0752 59.8688 15.7328 60.288 15.728C60.2944 15.728 60.2992 15.728 60.3056 15.728H60.304ZM59.6752 17.9728H60.944V23.0192H59.6752V17.9728ZM64.688 19.3712C64.5104 19.2304 64.2896 19.1504 64.0624 19.1472C63.5424 19.1472 63.2432 19.4848 63.2432 20.2208V23.0192H61.9744V17.9728H63.1952V18.6992C63.3872 18.2224 63.8608 17.92 64.3744 17.9472C64.6752 17.9472 64.9696 18.04 65.2192 18.2096L64.6864 19.3712H64.688ZM65.2208 20.5168C65.1808 19.096 66.3008 17.912 67.7216 17.872C67.752 17.872 67.7808 17.872 67.8112 17.872C69.1808 17.8144 70.336 18.8784 70.3936 20.248C70.3968 20.3104 70.3968 20.3744 70.3936 20.4384V20.9664H66.4752C66.6064 21.6192 67.2016 22.072 67.8656 22.0224C68.3984 22.0464 68.896 21.752 69.1344 21.2736L70.208 21.9168C69.6928 22.7088 68.7936 23.1664 67.8496 23.1136C66.4992 23.2208 65.3184 22.2144 65.2112 20.864C65.2016 20.7488 65.2016 20.6336 65.208 20.5184H65.2208V20.5168ZM66.488 19.9504H69.1344C69.0016 19.3296 68.4288 18.9024 67.7952 18.9536C67.176 18.9296 66.6256 19.3472 66.4848 19.9504H66.4896H66.488ZM70.7152 17.9728H71.616V17.7232C71.616 16.3536 72.1952 15.7824 73.4624 15.7824H73.9104V16.8944H73.5472C72.952 16.8944 72.8208 17.0976 72.8208 17.7392V17.9888H73.912V19.1296H72.8512V23.0176H71.6176V19.1296H70.7168V17.9712L70.7152 17.9728ZM74.152 20.5088C74.128 19.0848 75.264 17.912 76.6864 17.888C76.7184 17.888 76.7488 17.888 76.7808 17.888C78.2288 17.888 79.4016 19.0608 79.4016 20.5088C79.4016 21.9568 78.2288 23.1296 76.7808 23.1296C75.3808 23.192 74.1968 22.1072 74.1344 20.7088C74.1312 20.6336 74.1312 20.5584 74.1344 20.4848L74.152 20.5104V20.5088ZM78.1632 20.5088C78.2048 19.7472 77.6224 19.0944 76.8592 19.0528C76.0976 19.0112 75.4448 19.5936 75.4032 20.3568C75.4 20.408 75.4 20.4592 75.4032 20.5104C75.3616 21.272 75.944 21.9248 76.7072 21.9664C77.4688 22.008 78.1216 21.4256 78.1632 20.6624C78.1664 20.6112 78.1664 20.56 78.1632 20.5088ZM81.1424 20.4528L79.3248 17.9888H80.808L81.8816 19.5408L82.9808 17.9888H84.464L82.6176 20.44L84.5664 23.0176H83.0656L81.8608 21.3776L80.6992 23.0176H79.1984L81.1424 20.4512V20.4528ZM92.0048 19.4944C92.5728 19.2272 92.928 18.648 92.9088 18.0192C92.9088 16.9168 92.064 16.2064 90.7952 16.2064H87.8784V23.0192H90.888C92.1568 23.0192 93.0432 22.288 93.0432 21.096C93.0752 20.3952 92.6576 19.7504 92.0032 19.4944H92.0048ZM88.6608 16.9152H90.7744C91.6192 16.9152 92.1184 17.3632 92.1184 18.0176C92.1184 18.672 91.6704 19.1552 90.8496 19.1552H88.656L88.6608 16.9152ZM90.88 22.304H88.6608V19.8736H90.8464C91.776 19.8736 92.2624 20.368 92.2624 21.0912C92.2624 21.8144 91.7216 22.304 90.88 22.304ZM94.7104 18.9232V17.9808H93.9744V23.0192H94.7312V20.2592C94.7312 19.1472 95.2128 18.6608 96.0544 18.6608C96.272 18.6528 96.4864 18.7088 96.672 18.8208L96.9888 18.0944C96.7296 17.9552 96.4368 17.8896 96.144 17.904C95.4832 17.8624 94.8848 18.2928 94.7104 18.9312V18.9232ZM99.6384 17.8704C98.2096 17.856 97.04 19.0032 97.0256 20.432C97.0256 20.4512 97.0256 20.472 97.0256 20.4912C96.9952 21.9104 98.12 23.0848 99.5392 23.1152C99.5712 23.1152 99.6048 23.1152 99.6368 23.1152C101.085 23.1728 102.307 22.0464 102.365 20.5984C102.422 19.1504 101.296 17.928 99.848 17.8704C99.7776 17.8672 99.7072 17.8672 99.6368 17.8704H99.6384ZM99.6384 22.3888C98.6304 22.3968 97.8064 21.5856 97.7984 20.5776C97.7984 20.5456 97.7984 20.5136 97.8 20.4832C97.752 19.464 98.5376 18.5984 99.5568 18.5504C100.576 18.5024 101.442 19.288 101.49 20.3072C101.493 20.3664 101.493 20.4256 101.49 20.4832C101.531 21.4976 100.744 22.3536 99.728 22.3968C99.6976 22.3968 99.6672 22.3984 99.6384 22.3968V22.3888ZM108.405 21.9408L106.904 17.9712H106.194L104.651 21.9648L103.382 17.9712H102.579L104.232 23.0176H104.981L106.528 19.0192L108.08 23.0176H108.77L110.52 17.9744H109.725L108.406 21.9392L108.405 21.9408ZM113.214 20.1024C112.429 19.9424 111.824 19.84 111.824 19.3168C111.824 18.7936 112.141 18.5136 112.915 18.5136C113.466 18.4992 113.984 18.7632 114.298 19.216L114.931 18.7936C114.451 18.184 113.707 17.8416 112.931 17.872C111.739 17.872 111.054 18.552 111.054 19.3344C111.054 20.344 111.981 20.5776 112.846 20.7456C113.586 20.8928 114.275 21.008 114.275 21.5648C114.275 22.1216 113.853 22.4432 113.083 22.4432C112.434 22.4704 111.818 22.1584 111.456 21.6192L110.792 22.0672C111.314 22.7888 112.173 23.1888 113.062 23.1232C114.381 23.1232 115.053 22.3504 115.053 21.5552C115.045 20.52 114.08 20.2752 113.214 20.1104V20.1024ZM118.286 17.8704C116.858 17.8464 115.682 18.9856 115.658 20.4144C115.658 20.4464 115.658 20.48 115.658 20.512C115.619 21.912 116.722 23.0784 118.122 23.1184C118.186 23.12 118.251 23.1184 118.315 23.1168C119.27 23.16 120.171 22.672 120.656 21.848L120.005 21.4672C119.68 22.0944 119.019 22.4736 118.314 22.44C117.338 22.4928 116.494 21.768 116.398 20.7952H120.853V20.448C120.898 19.0736 119.821 17.9232 118.446 17.8784C118.394 17.8768 118.341 17.8768 118.288 17.8784L118.283 17.8704H118.286ZM116.422 20.1104C116.576 19.2032 117.366 18.5424 118.286 18.5504C119.206 18.4976 120 19.1904 120.07 20.1104H116.422ZM123.946 17.896C123.283 17.8528 122.682 18.2816 122.509 18.9232V17.9808H121.77V23.0192H122.526V20.2592C122.526 19.1472 123.013 18.6608 123.853 18.6608C124.07 18.6528 124.285 18.7088 124.47 18.8208L124.787 18.0944C124.53 17.9584 124.242 17.8928 123.95 17.904L123.946 17.896ZM59.6752 26.5856L53.4288 43.1424H56.7168L57.808 40.1248H64.7232L65.8144 43.1424H69.1024L62.8432 26.5856H59.6768H59.6752ZM58.872 37.2256L61.2768 30.6496L63.656 37.2256H58.872ZM75.6768 26.5856H70.3264V43.1424H75.736C80.6768 43.1424 84.3072 39.584 84.3072 34.8672C84.3072 30.1504 80.9344 26.5872 75.6768 26.5872V26.5856ZM75.5424 40.1504H73.5424V29.5584H75.448C79.0752 29.5584 81.0736 31.8288 81.0736 34.8672C81.0736 37.9056 78.8976 40.1504 75.5408 40.1504H75.5424ZM91.6032 26.5856H86.2432V43.1424H91.6624C96.608 43.1424 100.251 39.584 100.251 34.8544C100.251 30.1248 96.8704 26.5872 91.5952 26.5872H91.6032V26.5856ZM91.4688 40.1504H89.4736V29.5584H91.376C95.0064 29.5584 97.0016 31.8288 97.0016 34.8672C96.9936 37.8384 94.816 40.1504 91.4608 40.1504H91.4688ZM102.128 36.2144H110.518V33.5136H102.12L102.128 36.2144ZM120.624 26.3616C115.928 26.36 112.118 30.1648 112.115 34.8608C112.114 39.5568 115.918 43.3664 120.614 43.3696C125.31 43.3712 129.12 39.5664 129.123 34.8704C129.123 34.864 129.123 34.8592 129.123 34.8528C129.144 30.184 125.376 26.3824 120.709 26.3616C120.68 26.3616 120.653 26.3616 120.624 26.3616ZM120.624 40.2176C117.662 40.2624 115.226 37.896 115.181 34.9344C115.136 31.9728 117.502 29.536 120.464 29.4912C123.426 29.4464 125.862 31.8128 125.907 34.7744C125.907 34.8016 125.907 34.8272 125.907 34.8544C125.962 37.7632 123.646 40.1632 120.739 40.2176C120.701 40.2176 120.662 40.2176 120.624 40.2176ZM141.71 37.8592L134.458 26.5872H131.03V43.144H134.138V31.512L141.622 43.144H144.797V26.5872H141.712V37.8592H141.71ZM153.778 33.2096C151.71 32.736 150.058 32.4864 150.058 31.1472C150.058 30.0608 150.827 29.1728 152.619 29.1728C154.194 29.0944 155.683 29.888 156.494 31.24L159.102 29.1984C157.411 27.3392 155.59 26.32 152.666 26.32C149.216 26.32 146.79 28.496 146.79 31.2144C146.79 34.5712 149.558 35.3648 152.027 35.8848C154.318 36.4096 155.907 36.7296 155.907 38.2688C155.907 39.4688 154.978 40.3312 153.186 40.3312C151.211 40.3312 149.741 39.448 148.65 37.7232L145.859 39.9472C147.422 41.9424 149.6 43.328 153.163 43.328C156.726 43.328 159.242 40.9744 159.242 38.1376C159.242 34.592 156.312 33.776 153.776 33.2304V33.2096H153.778Z" fill="black"/>
<defs>
<linearGradient id="paint0_linear_4745_283" x1="42.327" y1="17.6275" x2="15.9869" y2="43.0039" gradientUnits="userSpaceOnUse">
<stop offset="0.05" stop-color="#FFF44F"/>
<stop offset="0.37" stop-color="#FF980E"/>
<stop offset="0.53" stop-color="#FF3647"/>
<stop offset="0.7" stop-color="#E31587"/>
</linearGradient>
<radialGradient id="paint1_radial_4745_283" cx="0" cy="0" r="1" gradientUnits="userSpaceOnUse" gradientTransform="translate(42.3983 20.0273) scale(33.4917 34.0434)">
<stop offset="0.13" stop-color="#FFBD4F"/>
<stop offset="0.28" stop-color="#FF980E"/>
<stop offset="0.47" stop-color="#FF3750"/>
<stop offset="0.78" stop-color="#EB0878"/>
<stop offset="0.86" stop-color="#E50080"/>
</radialGradient>
<radialGradient id="paint2_radial_4745_283" cx="0" cy="0" r="1" gradientUnits="userSpaceOnUse" gradientTransform="translate(29.7398 30.7138) scale(34.33 34.0434)">
<stop offset="0.3" stop-color="#960E18"/>
<stop offset="0.35" stop-color="#B11927" stop-opacity="0.74"/>
<stop offset="0.43" stop-color="#DB293D" stop-opacity="0.34"/>
<stop offset="0.5" stop-color="#F5334B" stop-opacity="0.09"/>
<stop offset="0.53" stop-color="#FF3750" stop-opacity="0"/>
</radialGradient>
<radialGradient id="paint3_radial_4745_283" cx="0" cy="0" r="1" gradientUnits="userSpaceOnUse" gradientTransform="translate(33.3422 12.444) scale(11.0053 18.6776)">
<stop offset="0.13" stop-color="#FFF44F"/>
<stop offset="0.53" stop-color="#FF980E"/>
</radialGradient>
<radialGradient id="paint4_radial_4745_283" cx="0" cy="0" r="1" gradientUnits="userSpaceOnUse" gradientTransform="translate(26.0702 39.7642) scale(14.5432 15.9414)">
<stop offset="0.35" stop-color="#3A8EE6"/>
<stop offset="0.67" stop-color="#9059FF"/>
<stop offset="1" stop-color="#C139E6"/>
</radialGradient>
<radialGradient id="paint5_radial_4745_283" cx="0" cy="0" r="1" gradientUnits="userSpaceOnUse" gradientTransform="translate(29.5533 27.4459) scale(7.7351 9.4199)">
<stop offset="0.21" stop-color="#9059FF" stop-opacity="0"/>
<stop offset="0.97" stop-color="#6E008B" stop-opacity="0.6"/>
</radialGradient>
<radialGradient id="paint6_radial_4745_283" cx="0" cy="0" r="1" gradientUnits="userSpaceOnUse" gradientTransform="translate(29.0061 16.2548) scale(11.5697 11.6064)">
<stop offset="0.1" stop-color="#FFE226"/>
<stop offset="0.79" stop-color="#FF7139"/>
</radialGradient>
<radialGradient id="paint7_radial_4745_283" cx="0" cy="0" r="1" gradientUnits="userSpaceOnUse" gradientTransform="translate(39.5433 8.00997) scale(55.2769 46.4043)">
<stop offset="0.11" stop-color="#FFF44F"/>
<stop offset="0.46" stop-color="#FF980E"/>
<stop offset="0.72" stop-color="#FF3647"/>
<stop offset="0.9" stop-color="#E31587"/>
</radialGradient>
<radialGradient id="paint8_radial_4745_283" cx="0" cy="0" r="1" gradientTransform="matrix(3.81903 36.0933 36.3631 -3.79025 34.3222 9.49238)" gradientUnits="userSpaceOnUse">
<stop stop-color="#FFF44F"/>
<stop offset="0.3" stop-color="#FF980E"/>
<stop offset="0.57" stop-color="#FF3647"/>
<stop offset="0.74" stop-color="#E31587"/>
</radialGradient>
<radialGradient id="paint9_radial_4745_283" cx="0" cy="0" r="1" gradientUnits="userSpaceOnUse" gradientTransform="translate(29.142 20.735) scale(31.7218 31.127)">
<stop offset="0.14" stop-color="#FFF44F"/>
<stop offset="0.48" stop-color="#FF980E"/>
<stop offset="0.66" stop-color="#FF3647"/>
<stop offset="0.9" stop-color="#E31587"/>
</radialGradient>
<radialGradient id="paint10_radial_4745_283" cx="0" cy="0" r="1" gradientUnits="userSpaceOnUse" gradientTransform="translate(37.3613 22.1194) scale(38.1082 34.1253)">
<stop offset="0.09" stop-color="#FFF44F"/>
<stop offset="0.63" stop-color="#FF980E"/>
</radialGradient>
<linearGradient id="paint11_linear_4745_283" x1="40.7166" y1="17.8834" x2="19.6654" y2="40.7487" gradientUnits="userSpaceOnUse">
<stop offset="0.17" stop-color="#FFF44F" stop-opacity="0.8"/>
<stop offset="0.6" stop-color="#FFF44F" stop-opacity="0"/>
</linearGradient>
</defs>
</svg>
